<?xml version="1.0" encoding="UTF-8"?>
<svg width="623.1" height="226.8" version="1.1" viewBox="0 0 623.1 226.8" xml:space="preserve" xmlns="http://www.w3.org/2000/svg">
<style type="text/css">
	.st0{fill:#003B71;}
	.st1{fill-rule:evenodd;clip-rule:evenodd;fill:#003B71;}
</style>
<rect class="st0" x="206.6" y=".3" width=".5" height="226.1"/>
<path class="st0" d="m108.5 57.8c-7.3 8.6-16.7 19.8-25.2 30.2-32.7-40.5-63.2-72.9-83.3-88 10.5 24.1 36.4 61.4 70.4 104.6-17.6 22.8-52.6 68.2-70.4 106.7 24.3-19.1 56.9-57 83.4-90.5 32.6 40.5 63.7 75.2 83.8 90.2-10.5-24-37.1-63.7-70.8-106.8 13.2-17 18-23 31.1-41.4 14.1-19.9 37-48.5 49.2-42.5-18.4-10.3-44.5 9.6-68.2 37.5"/>
<path class="st0" d="m43 93c-0.4-0.3-0.9-0.4-1.4-0.4-0.7 0-1.5 0.2-2.4 0.7s-1.8 1.2-2.8 2.1-1.9 1.9-2.9 3.2c-1 1.2-1.9 2.5-2.9 4-0.9 1.4-1.8 2.9-2.6 4.5s-1.5 3.2-2.1 4.8-1.1 3.2-1.4 4.8c-0.3 1.2-0.4 2.3-0.5 3.3-0.9 0.9-1.8 1.6-2.5 2.2-1 0.8-1.8 1.6-2.5 2.1-0.8 0.6-1.2 0.9-1.8 1.2l0.4 1.3c0.6-0.3 1.4-0.9 2.2-1.5 0.7-0.6 1.6-1.3 2.6-2.1 0.5-0.4 1.1-0.9 1.7-1.5 0 0.9 0.2 1.8 0.4 2.5 0.3 0.8 0.7 1.5 1.1 2.1 0.5 0.5 1 0.9 1.6 1.2 0.6 0.2 1.2 0.4 1.9 0.4 0.8 0 1.6-0.2 2.3-0.6 0.8-0.4 1.5-0.9 2.2-1.5 0.6-0.5 1.1-1.1 1.6-1.7l-0.8-0.9c-0.1 0.1-0.2 0.3-0.4 0.4-0.5 0.6-1.1 1.1-1.6 1.5s-1.1 0.8-1.7 1.1-1.1 0.4-1.7 0.4c-0.8 0-1.5-0.3-1.9-1s-0.7-1.7-0.8-3.1v-1.5c0-0.6 0.1-1.1 0.2-1.6 0.4-0.4 0.8-0.9 1.3-1.3l1.6-1.6c0.4-0.4 0.9-1 1.6-1.7 0.6-0.7 1.3-1.5 2.2-2.5 0.8-1 1.9-2.2 3-3.6 0.6-0.7 1.2-1.5 1.8-2.3s1.2-1.7 1.7-2.6l1.5-2.7c0.5-0.9 0.9-1.8 1.2-2.6s0.6-1.6 0.8-2.3 0.3-1.3 0.3-1.8c0.1-0.7-0.1-1.2-0.5-1.4m-1.3 4.2c-0.4 1-0.9 2.1-1.6 3.3s-1.5 2.5-2.4 3.8-2 2.7-3.1 4.2c-1.1 1.4-2.3 2.9-3.6 4.3-1.3 1.5-2.6 2.9-4 4.3 0.3-1.7 0.9-3.5 1.6-5.4 0.7-1.8 1.5-3.6 2.4-5.3s1.9-3.3 2.9-4.9c1-1.5 2-2.8 3-4 1-1.1 1.8-2 2.7-2.7 0.8-0.7 1.5-1 2-1 0.2 0 0.4 0.1 0.5 0.3s0.1 0.4 0.1 0.6c0.1 0.7-0.1 1.5-0.5 2.5m10.5-0.1c0 0.5-0.1 1.2-0.4 1.7s-0.7 1-1.2 1.5-1 0.9-1.6 1.3-1.2 0.7-1.8 0.9l-0.5-0.8c0.7-0.3 1.3-0.8 1.9-1.2 0.6-0.5 1-0.9 1.3-1.4-0.6-0.1-1-0.4-1.2-0.7-0.2-0.4-0.4-0.7-0.4-1.1 0-0.5 0.2-1 0.6-1.3 0.4-0.4 0.8-0.5 1.3-0.5s1 0.2 1.3 0.6c0.5 0.1 0.7 0.5 0.7 1"/>
<path class="st0" d="m57.3 197h6.9v1.2h-5.5v4.3h5.5v1.2h-5.5v4.4h5.5v1.2h-6.9zm5.2-3.8 0.5 0.9-4 2.2-0.4-0.8zm15.7 12.9c-0.8 1.9-3 3.6-5.7 3.6-3.7 0-6.5-2.8-6.5-6.4 0-3.5 2.7-6.4 6.4-6.4 3.1 0 5 2 5.7 3.6h-1.4c-0.4-0.7-1.8-2.4-4.2-2.4-2.9 0-5.1 2.3-5.1 5.2s2.2 5.2 5.1 5.2c2.6 0 3.9-1.9 4.2-2.3h1.5zm1.2-2.8c0-3.8 3-6.5 6.5-6.5 3.6 0 6.5 2.8 6.5 6.4s-2.8 6.4-6.5 6.4c-3.7 0.1-6.5-2.8-6.5-6.3zm1.4-0.1c0 2.9 2.2 5.2 5.1 5.2s5.1-2.4 5.1-5.2-2.1-5.2-5.1-5.2c-2.9 0-5.1 2.4-5.1 5.2zm13.9-6.2h1.4v11.2h5.3v1.2h-6.7zm8.4 0h6.9v1.2h-5.5v4.3h5.5v1.2h-5.5v4.4h5.5v1.2h-6.9z"/>
<path class="st0" d="m15.1 214.2c2.1 0 2.9 0.3 3.6 0.9 0.9 0.7 1.4 1.9 1.4 3.2 0 1.2-0.5 2.5-1.3 3.1-0.8 0.7-1.7 1-3.5 1h-1.5v4.3h-2.5v-12.4h3.8zm-1.2 5.9h1.5c0.6 0 1.1 0 1.6-0.3 0.5-0.2 0.8-0.8 0.8-1.6s-0.4-1.3-0.9-1.5c-0.5-0.3-1.1-0.3-1.7-0.3h-1.4v3.7zm7.6 0.4c0-4 3-6.5 6.5-6.5 3.7 0 6.5 2.9 6.5 6.4s-2.7 6.4-6.5 6.4-6.5-3-6.5-6.3zm2.5-0.1c0 2.3 1.6 4.2 4 4.2 2.5 0 4-2.2 4-4.2 0-2.1-1.5-4.3-4-4.3-2.4 0-4 2.1-4 4.3zm12.9-6.2h2.5v10.2h4.1v2.2h-6.6zm10.6 7.9-3.8-8h2.7l2.3 5.6 2.4-5.6h2.7l-3.8 8v4.4h-2.5zm10.4-5.8h-2.7v-2.2h7.8v2.2h-2.7v10.2h-2.5v-10.2zm7.8-2.1h6.9v2.2h-4.5v2.8h4.4v2.2h-4.4v3h4.5v2.2h-6.9zm21.5 8.2c-0.8 2.6-3.2 4.4-6.1 4.4-3.8 0-6.5-3-6.5-6.4 0-3.3 2.6-6.4 6.5-6.4 3.6 0 5.6 2.6 6.1 4.5h-2.6c-0.4-0.9-1.5-2.2-3.5-2.3-2.4 0-4 2-4 4.2 0 2.3 1.6 4.3 4 4.3 2.2 0 3.2-1.7 3.4-2.2h2.7zm2 4.1v-12.4h2.5v5h4.8v-5h2.5v12.4h-2.5v-5.2h-4.8v5.2zm21.2-3.8v-8.6h2.4v12.4h-2.2l-5.7-8.6v8.6h-2.4v-12.4h2.2zm5.9-8.5h2.5v12.4h-2.5zm23.2 0v7.6c0 0.6 0 1.3 0.4 1.9 0.3 0.5 0.9 0.9 1.7 0.9s1.4-0.4 1.7-0.9c0.4-0.6 0.4-1.3 0.4-1.9v-7.6h2.5v7.6c0 1.8-0.4 2.9-1.3 3.8-0.8 0.7-1.8 1.2-3.2 1.2-0.9 0-2.3-0.2-3.2-1.2-1.1-1.1-1.3-2.2-1.3-3.8v-7.6zm9.4 0h6.9v2.2h-4.5v2.8h4.4v2.2h-4.4v3h4.5v2.2h-6.9zm-14.7 10.5c-0.2 0-0.8-0.1-1.2-0.4 0.9-1.1 1.3-2.5 1.3-4 0-3.5-2.8-6.4-6.5-6.4-3.4 0-6.5 2.6-6.5 6.5 0 2.3 1.3 4.5 3.4 5.6 0.1 0.1 0.3 0.1 0.4 0.2 0.8 0.4 1.7 0.6 2.7 0.6 1.1 0 2.2-0.3 3.1-0.8 0.1-0.1 0.3-0.1 0.4-0.2 0.6 0.4 1.5 1 2.9 1h0.3v-2.1zm-10.4-4.3c0-2.2 1.5-4.2 4-4.2s4 2.2 4 4.3c0 0.8-0.2 1.6-0.6 2.3l-1.3-1.3-1.5 1.5 1.3 1.3c-0.5 0.3-1.1 0.4-1.8 0.4-2.5-0.1-4.1-2.1-4.1-4.3"/>
<path class="st1" d="m93 19.3c0.1 0 1.2-1.3 1.3-1.5s0.9-0.9 1-0.8c0 0.1-0.2 0.4-0.2 0.5s-0.6 1.2-0.9 1.4c-0.2 0.2-0.6 0.4-0.6 0.4 0 0.1 0.1 0 0.1 0.1s-0.2 0.2-0.4 0.3h-0.3v-0.4m-1.3 4.9c0-0.1 0.1-0.2 0.2-0.3s0.1-0.3 0.2-0.3c0 0 2.3-1.3 2.7-1.5 0.1 0 0.1-0.1 0.2-0.2-0.1 0-1.4 0.6-1.6 0.7s-1.2 0.5-1.3 0.3c0-0.2 0.3-0.6 0.4-0.6 0.1-0.1 1.8-0.4 3.1-1.1 0.1-0.1 0.2-0.1 0.4 0 0.1 0.2-1.7 2-4.3 3m-2.5 0.5c-0.2 0-0.6-0.1-0.6-0.3 0-0.1 2.3-1 2.6-1.3-0.2 0-2.1 0.7-2.1 0.5s0-0.4 0.1-0.4c1-0.1 2.9-1 3-0.9-0.1 0.2-2.1 2.2-3 2.4m2.3-8.8c-0.1 0.3-0.1 0.6-0.4 0.7h-0.3-0.5-0.3c-0.1 0-0.3 0-0.3-0.1v-0.2c0-0.2 0.1-0.5 0.1-0.7 0.2-0.1 1.6 0.2 1.7 0.3m0.1 4.9c0 0.1 0.1 0.1 0.1 0.2-0.2-0.1-0.2-0.4-0.3-0.6h0.1c0.1 0 0.1 0.2 0.1 0.4m-0.5-3c-0.2 0-1.3-0.2-1.3-0.2s-0.2-1 0.3-0.9c0.1 0 1.1 0 1.2 0.2 0 0.2-0.1 0.8-0.2 0.9m0 0.3v0.7h-1c-0.4 0.1-0.3-0.5-0.3-0.8 0 0 1.2 0 1.3 0.1m-0.9 1.9c-0.5 0.1-0.4-0.6-0.4-0.9 0 0 1.1-0.1 1.2 0s0.3 1 0 1c-0.2-0.1-0.8-0.1-0.8-0.1m0.8 0.3c0.3 0 0.2 0.5 0.3 0.6-0.1-0.1-1 0-1 0h-0.2c0-0.1-0.1-0.2-0.1-0.3s0-0.3 0.1-0.3c0.3-0.1 0.6 0 0.9 0m-1.9 0.8c0.2 0 0.3 0 0.3 0.1-0.1 0.1-0.2 0.1-0.4 0.1h-0.4c-0.1 0-0.5 0-0.5-0.1s0.2-0.2 0.2-0.2c0.3 0 0.6 0.1 0.8 0.1m-0.1 0.5c0.2 0 0.3 0 0.3 0.1s-0.5 0.1-0.6 0.1-1.2 0-1.2-0.1 0.3-0.3 0.4-0.3c0.3 0 0.8 0.2 1.1 0.2m6-2.9v-0.1c0.1-0.2 0.2-0.4 0.2-0.5s0.2-0.6 0.3-0.7c0.2-0.1 1.8-1.5 1.8-1.7-0.1 0-1.3 1.2-1.6 1.1 0-0.1 0.6-1.2 0.8-1.4 0.1-0.1 0.2-0.2 0.4-0.2 0.1 0.1 0 0.2 0 0.3 0.5-0.2 0.4-1 0.8-1 0.1 0 0.1 0.2 0.1 0.2 0.1-0.2 0.2-0.5 0.3-0.7 0.1-0.1 0.3-0.2 0.4-0.1 0.1 0-0.2 0.5-0.2 0.7-0.2 0.4-0.3 1-0.5 1.4-0.1 0.2-2.6 2.6-2.8 2.7m-2.1 1.5s0.5-0.2 0.6-0.2c0.1-0.1 0.2-0.3 0.3-0.3 0.1 0.2-0.9 1.6-1.3 1.9-0.8 0.5-2.8 1.3-2.8 1.3-0.3 0.1-0.4 0.1-0.4-0.2 0-0.1 0-0.2 0.1-0.2 0 0 1.8-0.6 2.2-0.9 0 0-1.8 0.4-1.9 0.3 0-0.2 0.1-0.5 0.3-0.5h1.4s1.1 0.1 1.3-0.2 0.2-0.9 0.2-1m-1 0.8c0-0.1 0.1-0.3 0.2-0.4s0.2-0.3 0.3-0.4h0.1c-0.1 0.3-0.3 0.5-0.5 0.7 0.1 0 0 0.1-0.1 0.1m0.5-3.8c0 0.2-0.5 0.8-0.6 0.9v0.3c0.1 0 0.1-0.1 0.2-0.2 0-0.1 0.4-0.6 0.4-0.5 0.2 0.1-0.6 0.9-0.6 1.1 0 0.1 0 0.3 0.1 0.3s0.6-0.8 0.7-0.7c0 0.1-0.7 1-0.7 1.1s0 0.3 0.1 0.3 0.5-0.6 0.6-0.7c0.1 0.1 0 0.2 0 0.3-0.1 0.2-0.6 0.8-0.5 1-0.1 0-0.1-0.1-0.2-0.1 0-0.1-0.1-0.6-0.1-0.7 0 0-0.1-1.2-0.1-1.4v-0.6c0.1 0 0.5-0.5 0.6-0.6 0 0.1 0.1 0.1 0.1 0.2m-0.1-0.5c-0.1 0.2-0.6 0.8-0.7 0.8 0-0.2 0.1-0.5 0.1-0.5s0.3-0.4 0.5-0.5c0.1 0 0.1 0.1 0.1 0.2m-0.3-0.6c0.2 0 0 0.3-0.1 0.4s-0.2 0.2-0.2 0.1c-0.1-0.1 0.1-0.3 0.3-0.5m0.6-6.4c0.1 0 1.4 1 2 1.5 0 0.1 0 0.1-0.1 0.2-0.1 0-0.2-0.1-0.3-0.2-0.6-0.4-1.7-1.2-1.7-1.3-0.1-0.2 0-0.2 0.1-0.2m1.6 1.8c0.5 0.3 0.3 0.6 0.2 0.7-0.1 0-0.2-0.2-0.3-0.2-0.2-0.1-0.3-0.2-0.4-0.3 0.2 0.3 0.3 0.5 0.6 0.7 0 0.2-0.8 0.9-0.9 1s-0.1 0.1-0.3 0.1c-0.1 0-1.9-1.3-2-1.3s-0.3-0.2-0.3-0.3 0.3-0.8 0.4-1 0.5-0.9 0.7-0.9 0.4 0.2 0.5 0.3c0.2 0 1.8 1.2 1.8 1.2m-3.8 0.6c0-0.1 0.1-0.1 0.3-0.1 0.2 0.1 0.5 0.3 0.7 0.4 0.4 0.3 1.4 1 1.6 1.1 0.1 0.1 0.4 0.2 0.2 0.4-0.2-0.2-0.7-0.4-0.8-0.5 0 0.1 0.2 0.2 0.3 0.3s0.3 0.2 0.3 0.3c-0.1 0-0.3-0.1-0.4-0.2-0.6-0.5-1.1-0.8-1.7-1.2-0.2 0-0.6-0.2-0.5-0.5m2.3 2.1c0 0.1-0.1 0.2-0.1 0.3l-0.4-0.4c-0.1-0.1-0.2-0.1-0.3 0 0 0.1 0.1 0.2 0.2 0.3s0.2 0.2 0.4 0.2c-0.2 0.4-0.5 0.7-0.7 1.1-0.1 0-2.5-0.8-2.6-0.9v-0.3c0-0.1 0.4-0.7 0.6-0.9 0.1-0.2 0.6-1 0.7-1s0.2 0.1 0.3 0.1c0.3 0.4 1.7 1.4 1.9 1.5m-8.3 2.2c0.2 0 0.8-0.1 0.9 0 0 0.1-0.2 0.1-0.3 0.1s-0.5 0-0.6-0.1zm-2.7 0.1c0.2 0 0.8-0.1 0.9 0 0 0.1-0.2 0.1-0.3 0.1-0.2 0-0.6 0-0.6-0.1zm2.9 0.5c0.1 0 0.5-0.1 0.6 0.1-0.1 0.1-0.4 0.1-0.5 0.1s-0.3 0-0.3-0.1c0-0.2 0.1-0.1 0.2-0.1m0.3 0.5c-0.1 0.1-0.3 0.1-0.4 0.1-0.1-0.2 0.2-0.2 0.4-0.1m2.4-3.9c-0.2 0-1-0.5-1.4-0.8-0.3-0.2-0.5-0.5-0.7-0.8s-0.6-0.8-0.6-0.9 0.1-0.1 0.1-0.1c0.1 0.1 0.2 0.3 0.3 0.4 0.5 0.7 1.1 1.4 1.9 1.8 0.2 0.1 0.5 0.2 0.8 0.3 0.1 0 0.2 0 0.2 0.1-0.2 0.2-0.4 0.1-0.6 0m-0.8-0.9c0.3 0 0.8 0 1.1 0.1 0 0.1 0.1 0.2 0.1 0.2-0.2 0.1-0.4 0.1-0.6 0-0.2 0-0.3-0.1-0.4-0.2-0.1 0.1-0.2 0-0.2-0.1m-0.7-2.5h-0.8c-0.1 0-0.1-0.2-0.1-0.3s-0.2-0.8-1-0.7c-0.4 0-0.8 0.3-1 0.6-0.1 0-1-0.1-1.7-0.4s-1.4-0.7-1.6-0.9c-0.5-0.4-0.4-0.3-0.4-0.5s1.2-2.7 3.8-2.7c0.6 0 1.4 0.1 1.6 0.3 0 0.1-0.7 0-0.9 0v0.1c0.2 0 1.3 0.1 1.6 0.2 0.1 0 0.2 0.1 0.2 0.2s-0.7 0-0.9 0c-0.1 0-0.2 0-0.1 0.1 0.5 0.2 1.5 0 1.6 0.4 0 0.1-0.3 0.1-0.4 0.1v0.1c0.3 0.1 0.9 0.1 0.8 0.4 0 0.1-0.5-0.1-0.5 0.1 0 0.1 0.5 0.1 0.7 0.1 0.1 0 0.2 0.2 0.2 0.3s-0.7 0-0.8 0v0.1s1.1 0.1 1.1 0.4c-0.1 0.1-1.1 0-1.4 0v0.1c0.3 0 0.8 0.1 1.1 0.1 0.1 0 0.3 0.1 0.3 0.1s0.2 0.2 0.1 0.3-0.6 0-0.9 0c0 0.1 0 0.1-0.1 0.1 0.1 0 1 0.1 1.1 0.2v0.2c-0.1 0.1-0.9-0.1-1.1-0.1-0.1 0-0.2 0-0.2 0.1 0.2 0.1 1.2 0.2 1.3 0.2 0.1 0.1 0.1 0.3 0 0.3-0.3 0-0.6-0.1-0.9-0.1 0 0 0 0.1-0.1 0.1 0.2 0.1 0.8 0 1 0.2 0.1 0 0.1 0.2 0 0.2h-1.1v0.2c0.4 0 1.2 0.1 1.2 0.2s-0.1 0.1-0.2 0.1h-1.2v0.1c0.2 0 1.3 0.1 1.3 0.2s0 0.2-0.1 0.3h-0.9v0.1c0.3 0 0.6 0 0.9 0.1v0.3h-0.7v0.1s0.5 0 0.8 0.1v0.3c-0.4 0-0.7-0.1-1.1-0.1v0.1c0.4 0.1 0.7 0.1 1.1 0.1 0 0.1 0.1 0.1 0.1 0.2-0.2 0.1-1.1 0-1.3 0-0.1 0-0.7-0.6-0.7-0.8 0-0.1 0.1 0 0.2-0.1v-0.1c-0.1-0.1-0.2 0-0.4-0.1-0.1 0-0.2-0.2-0.2-0.3s0.3 0 0.4-0.1c0-0.1-0.5-0.1-0.7-0.2 0 0-0.1-0.1-0.1-0.2 0-0.2 0.5 0 0.7 0v-0.1c-0.2 0-0.5 0-0.6-0.1 0-0.1 0-0.3 0.1-0.3h0.8zm-7.2-1.9c0-0.1 0.1-0.3 0.2-0.3s0.1 0.1 0.1 0.1c0.6 0.8 1.5 1.1 1.6 1.2 0 0.1-0.1 0-0.1 0v0.1s0.5 0.1 0.7 0.1 0.8 0.2 1.2 0.3c-0.1 0.1-0.5 0-0.6 0v0.1h1s0.1 0 0.1 0.1c0 0.2-1 0.5-2.2 0.4-0.8 0-1.3-0.1-2.1-0.3-0.7 0 0.1-1.7 0.1-1.8m-0.2 2.2c0.8 0.1 1.6 0.3 2.5 0.3 0.6 0 1.2 0 1.8-0.1 0.1 0 0.2 0 0.3 0.1 0 0.2-0.7 0.2-0.7 0.2v0.1c0.3 0 0.5 0 0.8-0.1-0.1 0.1-0.2 0.2-0.4 0.3-0.1 0.1-0.6 0.4-1 0.5-0.6 0.3-2.2 0.5-2.7 0.6-0.5 0-1 0.1-1.4 0-0.2 0.1 0.5-1.5 0.8-1.9m0 2.5c-0.3 0-0.7 0-1.1-0.1 0-0.2 0.2-0.1 0.3-0.1 1.4 0.1 2.7-0.1 3.9-0.5 0.5-0.2 1.2-0.6 1.7-0.9h0.1c0 0.2-0.6 0.5-0.9 0.7-0.8 0.4-2.7 0.9-4 0.9m3.7 4c0.1 0 0.4-0.1 0.4 0 0 0.2-0.3 0.2-0.4 0zm-7.2 6.3c-0.2-0.2-0.6-0.6-0.6-0.8 0.1-0.1 0.2 0 0.4 0.1s0.5 0.3 1 0.5 1.5 0.2 1.6 0.3 0.1 0.2 0.1 0.4c0 0.1-0.2 0.1-0.5 0.1-0.2 0-1.6-0.6-1.7-0.6 0.3 0.3 0.7 0.6 1 0.7 0.3 0.2 1 0.4 1.2 0.4s0.4 0.1 0.3 0.3c0 0.1-0.3 0.2-0.5 0.2-1-0.3-2.3-1.5-2.3-1.6m-4.6-2.1c0.1-0.1 0.3 0 0.4 0s0.5 0.2 0.6 0.2 2.6 0.9 2.8 1.1c0.1 0.1 0.3 0.4 0.1 0.4-0.3 0.1-2.7-1-2.7-1.1 0.1 0.2 0.4 0.3 0.7 0.4 0.3 0.2 2.2 1.3 2.3 1.3 0.1 0.1 0.1 0.2 0.2 0.3s0.2 0.2 0.2 0.3c-1 0.2-4.6-2.2-4.6-2.9m3-1.6c0 0.3-0.4 0.1-0.6-0.1s-0.3-0.2-0.5-0.5-0.8-1.2-0.9-1.4c0-0.1-0.2-0.4-0.2-0.5 0-0.3 0.8 0.6 1 0.8 0.2 0.3 0.7 0.7 0.9 1.1 0.2 0.3 0.3 0.5 0.3 0.6m0.2 1.6c-0.1 0-0.6-0.5-0.7-0.7s-0.3-0.4-0.3-0.6c0.2 0 0.7 0.5 0.7 0.5 0.1 0.1 0.1 0.2 0.1 0.4 0.1 0.1 0.3 0.2 0.2 0.4m2.9-5.5c0.3 0.1 0.2 0.8 0.2 1s-1.2 0.3-1.4 0.2-0.3-0.5-0.2-0.8 1.2-0.5 1.4-0.4m0.2 2c0 0.2-1.3 0.3-1.4 0-0.1-0.2 0-0.6 0-0.7s1.3-0.2 1.4 0 0 0.5 0 0.7m0.8-2.4c0.2 0 0.4 0.8 0.4 0.8 0.6 2 0 4.3-0.1 4.3h-0.5c-0.1-0.1 0.9-2.1 0.2-4.5-0.1-0.2-0.2-0.6 0-0.6m11.6 0.6c-0.7 2.3 0.3 4.4 0.2 4.5s-0.4 0.1-0.5 0c-0.1 0-0.7-2.3-0.1-4.3 0 0 0.2-0.8 0.4-0.8 0.1 0 0 0.4 0 0.6m-11.4 4.6v0c0.1 0.2 0.2 0.3 0.3 0.4h-0.9s0-0.3 0.1-0.4h0.5m11.6 0c0.1 0.1 0.1 0.4 0.1 0.4h-0.9c0.1-0.1 0.2-0.1 0.3-0.3v-0.1h0.5m-12.9-1.6c-0.2 0.1-1.1 0.1-1.2 0-0.1-0.2-0.1-0.8 0.2-0.8 0.3-0.1 1-0.1 1.2 0.1 0.2 0.1 0.1 0.7-0.2 0.7m-1 0.3c0.3 0 1.1 0 1.2 0.1 0 0.2-0.1 0.7-0.4 0.8s-0.7 0-1 0-0.1-0.9 0.2-0.9m-0.7 1.9c0-0.2 0.3-0.7 0.4-0.8 0.2-0.1 0.7 0 0.9 0 0.3 0.1-0.1 0.8-0.3 0.9 0 0-0.9 0.1-1-0.1m1.9 0.4c0.1 0.1 0.3 0.5 0.2 0.5s-1.9-0.3-1.9-0.3c0.2 0.2 0.6 0.3 0.9 0.5 0.4 0.1 1.2 0.4 1.3 0.4 0.1 0.1 0.1 0.1 0.1 0.2 0 0.2-0.1 0.3-0.4 0.2-0.2 0-1.2-0.3-1.5-0.4-0.4-0.2-1.3-0.8-1.2-1 0-0.2 2.4-0.1 2.5-0.1m0.6-4.7c-0.3 0-0.3-0.3-0.2-0.4s0.4-0.1 0.4 0v0.3l-0.2 0.1m-0.2-0.6c-0.1-0.1-0.2-0.5 0.2-0.4 0.1 0 0.2 0.2 0.1 0.3 0 0.1-0.2 0.2-0.3 0.1m-0.2-0.6c0-0.2 0.4-0.2 0.4 0 0 0.1-0.3 0.2-0.4 0m12.4 1v-0.3c0-0.1 0.4-0.1 0.4 0 0.1 0.1 0 0.4-0.2 0.4 0 0.1-0.2 0-0.2-0.1m0-0.5c-0.1-0.1 0-0.3 0.1-0.3 0.4-0.1 0.4 0.3 0.2 0.4 0 0.1-0.2 0-0.3-0.1m0.1-0.5c0-0.2 0.4-0.1 0.4 0-0.1 0.2-0.4 0.1-0.4 0m-17.5-4.3c0.7-0.6 1.3-1 2-1.6 0 0 0.1 0.2 0.1 0.3-0.1 0.1-0.4 0.3-0.4 0.3s-0.9 0.8-1.6 1.2c0-0.1 0-0.2-0.1-0.2m1.4 2.1c0-0.1 0.2-0.2 0.2-0.2 0.3-0.2 0.5-0.4 0.7-0.7-0.2 0-0.3 0.2-0.5 0.3-0.2 0.2-0.5 0.3-0.6 0.5-0.1 0-0.2-0.1-0.2-0.2s0.1-0.1 0.2-0.2 0.5-0.5 0.6-0.7c-0.3 0.1-0.9 0.8-1 0.8s-0.2-0.1-0.2-0.1c0-0.2 0.4-0.4 0.4-0.6-0.1 0-0.4 0.3-0.5 0.3s-0.1-0.1-0.1-0.2c0-0.2 0.5-0.4 0.5-0.7-0.1 0-0.6 0.5-0.7 0.5s-0.2-0.5 0.3-0.8c0.3-0.2 1.9-1.4 2.1-1.4 0.1 0 0.3 0.3 0.4 0.4s0.2 0.3 0.4 0.6c0.1 0.3 0.3 0.7 0.4 1-0.2 0.2-2.1 1.5-2.2 1.5 0 0.1-0.2 0-0.2-0.1m0.4 0.8c0-0.1 0.1-0.1 0.2-0.1 0.2-0.1 0.3-0.3 0.5-0.4-0.2 0-0.5 0.2-0.6 0.3-0.1 0-0.1 0.1-0.1 0.2-0.1-0.1-0.2-0.1-0.2-0.3 0.1-0.1 0.4-0.3 0.5-0.4 0.5-0.4 0.5-0.5 1-0.8 0.3-0.3 0.6-0.4 0.9-0.6 0.1-0.1 0.3 0.1 0.2 0.3-0.1 0.1-0.3 0.3-0.5 0.4-0.3 0.2-0.5 0.3-0.8 0.6s-0.5 0.4-0.8 0.7c0 0-0.2 0.1-0.3 0.1m0.3 0.1c0.6-0.5 1.4-1.1 2.1-1.6 0.1-0.1 0.8 1.1 1.1 1.5 0.1 0.1 0.2 0.3 0.2 0.5s-2.4 1-2.4 0.9c-0.1 0-0.7-0.8-1-1.3m0.6 1.8c0.2-0.1 0.4-0.3 0.5 0 0 0.2 0.1 1.6 0.1 1.9s-0.1 0.9-0.1 1-0.1 0.7-0.1 0.9-0.2 0.9-0.3 1c-0.1 0.2-0.2 0.5-0.4 0.4-0.2 0-0.2-0.2-0.3-0.4s-0.2-0.8-0.2-1.2 0.1-1.5 0.2-1.9c0.1-0.6 0.4-1.5 0.6-1.7m-10.2-5c0.2 0 6.5 2.6 9.4 5.5 0.1 0.1 0.1 0.2 0 0.3-0.1 0-0.2-0.2-0.2-0.2l-0.7-0.7c0.1 0.1 0.9 1 0.9 1.1s0.1 0.4 0 0.4-0.1-0.1-0.1-0.2c-0.2-0.3-0.5-0.5-0.7-0.7 0.1 0.2 0.5 0.8 0.6 0.8 0.1 0.1 0.3 0.3 0.1 0.6-0.1 0-0.1-0.1-0.2-0.2s-0.4-0.5-0.6-0.6c0 0.1 0.9 1 0.7 1.4-0.1 0-0.1-0.1-0.2-0.2-0.4-0.5-2.6-2.9-3.6-3.7-0.9-0.8-5-3.3-5.2-3.4s-0.3-0.2-0.2-0.2m11.6 15.1c0-0.1 0.1-0.1 0.1-0.2-0.2-0.1-0.4 0.1-0.7 0.2-0.2 0-0.5 0-0.5-0.1 0-0.2 0.3-0.1 0.3-0.2-0.3-0.1-0.6 0.1-0.9 0.1-0.2 0-0.3-0.1-0.5-0.2v-0.2c-0.3-0.1-0.8 0-0.7-0.4-0.1-0.1-0.2-0.1-0.3-0.1s-0.2-0.1-0.3-0.1c0 0-0.8-1.1-0.9-1.2s-0.3-0.4-0.1-0.5c0.1 0 1.9 1 3.7 1.7 0.2 0.1 0.2 0.2 0.2 0.3s-0.1 0.2-0.2 0.2-0.3 0-0.4-0.1c-0.1 0-1.5-0.6-1.7-0.6 0 0.1 0.3 0.2 0.4 0.3 0.3 0.2 0.7 0.3 1 0.4s0.6 0.2 1 0.3c0.2 0 1.1 0.2 1.1 0.4 0.1 0.2-0.5 0.2-0.6 0m0.8-1c0.1 0.2 1.4 0.6 1.4 0.8 0 0.1-0.2 0.2-0.4 0.2s-0.7-0.2-1-0.4c-1-0.7-1.8-1.8-1.9-2.1-0.1-0.1-0.2-0.3-0.1-0.3 0.2 0.2 1.6 1.9 3.6 1.9 0.2 0 0.5 0.4 0.3 0.5-0.4 0-1.7-0.5-1.9-0.6m5.1 1.7c-0.1 0-2.3 0-3.2-0.1 0-0.1-0.2-0.8 0-0.9h3.5 0.3v1h-0.6m-4.4 3.4c0.2-0.3 0.6-1 0.6-1s0.4-0.1 0 0.4c-0.1 0.1-0.2 0.2-0.2 0.3-0.2 0.3-0.4 0.7-0.5 0.7-0.1 0.1 0.1-0.2 0.1-0.4m2.1 0c-0.1 0 0-0.2 0-0.3 0.1-0.1 0.8 0 0.9 0 0 0 0 0.1 0.1 0.1 0 0.2-0.1 0.2-0.2 0.3-0.2 0.1-0.8-0.1-0.8-0.1m1-0.4c0 0.1-0.3 0-0.4 0-0.3 0-0.4-0.1-0.5-0.1v-0.1c0-0.2 0.5 0 0.7 0 0.1 0.1 0.2 0.1 0.2 0.2m0 0.3c0-0.1 0-0.3 0.1-0.3 0.1-0.1 0.2 0 0.3 0 0 0.1 0 0.3-0.1 0.4-0.1 0.3-0.1 0.5-0.1 0.8 0 0.1 0 0.3-0.1 0.3s-0.1 0-0.2-0.1c0.1-0.2 0.2-0.8 0.2-0.8-0.1 0-0.1-0.2-0.1-0.3m-1.4-0.1c-0.1 0.2-0.2 0.5-0.3 0.8-0.1 0.1-0.1 0.3-0.2 0.3-0.2 0 0-0.3 0-0.5 0.1-0.2 0.2-0.5 0.3-0.7 0-0.1 0.1-0.3 0.2-0.3 0.2-0.1 0 0.3 0 0.4m-0.7 0.8-0.1 0.1c-0.1 0-0.5-0.1-0.5-0.2 0-0.2 0.6 0.1 0.6 0.1m-0.5-0.4c-0.1-0.3 0.5-0.2 0.5-0.1 0 0 0.1 0 0.1 0.1s-0.1 0.2-0.2 0.2h-0.2c-0.1 0-0.2-0.1-0.2-0.2m0.8-0.6c-0.1 0-0.4 0-0.4-0.1s0-0.1 0.1-0.2c0.3-0.2 0.7 0.2 0.3 0.3m0 0.2c0 0.1-0.1 0.3-0.2 0.2-0.1 0-0.4-0.1-0.4-0.2s0.1-0.2 0.1-0.2c0.2 0 0.5 0.1 0.5 0.2m-9.7 17.6c0-0.1-0.6-0.8-0.7-1s-0.6-1.1-0.8-1.4c-0.1-0.2-1-2.2-1.3-3.5s-0.3-2.4-0.3-3c0.2-3.1 0.3-3 0.6-4.2 0 0 0.8 1.1 1 1.5 0.9 1.4 3.2 3.4 3.4 3.5s0.3 0.2 0.2 0.3c-0.1 0.2-0.5 1.4-0.5 1.5-0.1 0-0.1-0.1-0.1-0.1-0.1-0.1-0.2-0.3-0.4-0.4-0.5-0.5-1.3-1.6-1.5-1.7-0.1-0.2-1.2-1.6-1.3-1.9-0.2-0.3-0.3-0.6-0.5-0.6 0 0-0.2 0-0.2 1.4s0.2 4.8 3.1 8.9c0 0 0.1 0.2-0.1 0.4-0.1 0.1-0.3 0.2-0.4 0.4h-0.1l-0.1-0.1m14.2 8.1-0.1-6c0-0.1-0.2-0.1-0.3-0.1 0 0-2.1-0.1-2.6-0.1s-2-0.3-2.9-0.6c-2.7-0.9-4.6-2.4-4.9-2.7-2.2-2-3.5-4.2-4.2-5.6s-0.8-1.9-0.9-2.1c0-0.1-0.1-0.3-0.2-0.3-0.1 0.1-0.1 0.2 0 0.3 0 0.3 0.3 0.9 0.3 1 0.3 0.7 0.6 1.4 1 2.1 0.1 0.2 0.5 0.9 0.5 1-0.1-0.1-0.7-1-0.9-1.4-0.2-0.3-0.5-1.3-0.7-1.3-0.1 0.3 0.1 0.6 0.2 1.1s0.6 1.9 0.8 2.3c0.2 0.3 0.6 0.9 0.9 1.3 0.1 0.2 0.3 0.3 0.3 0.5-0.1 0-1-1.2-1.2-1.5 0 0.2 0 0.2 0.2 0.6 0.6 1.2 1.7 2.2 1.8 2.3l0.8 0.8c0.1 0.1 0.8 0.7 0.8 0.8-0.3-0.2-0.6-0.4-0.8-0.5-0.2-0.2-1-0.9-1.3-1.3-0.2-0.1-0.1 0-0.1 0 1 1.3 2.8 3 5.4 4.1 4.4 1.6 6.6 2.1 8.1 5.3zm0.2-11.2c0.4 0 0.9 0 1.3-0.1v-0.1h-1.3v-0.4c0.3 0 1.2 0 1.2-0.1s-0.9 0-1.2-0.1v-0.3c0.2 0 1.1 0 1.1-0.1s-0.8 0-1.1-0.1v-0.3c0.3 0 1.3-0.1 1.3-0.2s-0.9 0-1.3 0v-0.4c0.3 0 1.3 0 1.3-0.1s-1-0.1-1.3-0.1v-0.4c0.2 0 1 0 1-0.1s-0.9-0.1-1-0.1v-0.3c0.3 0 1.3 0 1.3-0.1s-1 0-1.3-0.1v-0.3c0.2 0 1.1 0 1.1-0.1s-0.9-0.1-1.1-0.1v-0.3c0.4 0 1.3 0 1.3-0.1s-1-0.1-1.3-0.1v-0.4c0.2 0 1.2 0 1.2-0.1s-1-0.1-1.2-0.1v-0.3c0.2 0 1 0 1-0.1s-0.8-0.1-1-0.1v-0.3c0.4 0 0.9 0 1.3-0.1 0-0.1 0.1-0.1 0-0.1h-1.3v-0.4c0.8 0 2.3-0.2 2.4-0.2s0.5-0.1 0.7 0c0.1 0.4-1 0.5-1.3 0.5 0.1 0.2 0.9 0.1 1.1 0 0.2 0 0.3 0.1 0.3 0.3-0.1 0.1-1 0.2-1.1 0.3 0.1 0.1 0.9 0 1 0s0.1 0.1 0.1 0.3c-0.2 0.3-0.8 0.1-1 0.3 0.1 0.1 1-0.1 1.1 0 0 0.1 0.1 0.2 0 0.3s-1.1 0.2-1.1 0.3 0.9 0 1 0 0.1 0.1 0.1 0.2c0 0.2-0.4 0.2-0.7 0.2-0.1 0-0.3 0-0.3 0.1s0.9 0 1 0c0.1 0.1 0.1 0.1 0.1 0.2 0 0.2-0.6 0.2-0.8 0.3 0 0.1 0.1 0.1 0.2 0.1 0.2 0 0.4-0.1 0.6-0.1 0.1 0 0.1 0.2 0.1 0.3-0.1 0.1-1.2 0.2-1.1 0.3 0 0.1 0.3 0 0.3 0 0.3 0 0.5-0.1 0.8-0.1 0.1 0.1 0.1 0.2 0.1 0.3 0 0-0.7 0.2-0.7 0.3s0.1 0 0.2 0c0.3 0 0.7-0.3 0.7 0.2-0.2 0.1-0.9 0.2-1.1 0.3 0.1 0.1 0.3 0.1 0.4 0.1 0.3 0 0.5-0.1 0.8-0.1 0.1 0.1 0.2 0.2 0.2 0.3s-1.2 0.2-1.2 0.4c0.1 0.1 0.2 0 0.3 0 0.2 0 0.9-0.2 1-0.1 0.1 0 0.2 0.2 0.2 0.3s-0.1 0.1-0.2 0.1c-0.3 0.1-0.6 0.2-1 0.2 0 0-0.2 0-0.2 0.1s0.2 0 0.2 0c0.2 0 1.3-0.3 1.4 0.1-0.3 0.2-0.7 0.2-1.1 0.3 0 0-0.2 0-0.2 0.1 0.1 0.1 1.3-0.2 1.4-0.2s0.3 0.2 0.3 0.3-0.3 0.1-0.4 0.1c-0.5 0.1-0.9 0.2-1.4 0.2v0.1c0.5 0 1.1-0.2 1.6-0.2 0.3 0 0.5-0.1 0.7 0.2-0.2 0.1-1.7 0.4-1.9 0.5 0 0.1 0.2 0.1 0.2 0.1l1.5-0.3c0.2 0 0.4-0.1 0.6-0.1 0.1 0 0.7 0.1 0.4 0.3-0.2 0.1-2.1 0.5-2.2 0.5s-0.2 0-0.2 0.1c0.3 0.1 2.9-0.6 3.1-0.6h0.8c-0.1 0.1-2.5 0.8-2.9 0.8v0.1c1.1-0.2 3-0.8 3.3-1 0.9-0.4 2-1.1 2.5-1.6 2.5-2.2 3.5-3.6 4.2-4.6s1.1-1.6 1.1-1.6c0 0.2 0 0.4-0.1 0.7s-0.6 1.5-0.7 1.8-0.4 0.8-0.6 1.1c-0.1 0.3-0.4 0.7-0.6 1-0.6 0.9-2.4 3.3-2.9 3.6-0.5 0.4-0.7 0.6-1.8 1.5s-4.6 2.1-7.6 2.2h-1.5c-0.1 0-0.1-0.3 0-0.3 0.4 0 1.7-0.1 1.7-0.2s-1.3-0.1-1.7-0.1c-0.1 0-0.1-0.3 0-0.4 0.3 0 1.2 0 1.2-0.2 0-0.1-0.8 0-1.2 0-0.1-0.1-0.1-0.3 0.1-0.3h0.3c0.2 0 1.2-0.1 1.2-0.2s-1.5 0-1.5-0.1c-0.1-0.1-0.1-0.3 0-0.4 0.3 0 1.4-0.1 1.5-0.2 0-0.1-1.3 0-1.4 0-0.1-0.1-0.1-0.3 0-0.4 0.1 0 1.4 0 1.4-0.2s-1.6 0.1-1.5-0.2c0-0.2 1.2-0.2 1.2-0.3s-0.8 0-1.2 0c-0.1 0-0.1-0.3 0-0.4 0.4 0 1.2 0 1.2-0.1s-1-0.1-1.2-0.1c-0.1 0-0.1-0.2 0-0.3s1.2 0.1 1.2-0.1-1-0.1-1.3-0.2v-0.3zm0-7c0.4-0.1 0.9-0.1 1.4-0.1 0.4 0 0.9-0.1 1.2-0.2 0.2 0 0.4-0.1 0.5 0-0.1 0.2-0.4 0.2-0.6 0.3-0.7 0.1-1.7 0.1-2.5 0.2m3.4-0.6c-0.2-0.1 0 3.4 0.7 5.1s2 3 3.9 2.7c1.2-0.2 3-1.8 3-1.8 0.1-0.1-0.2 0-0.2 0-1.5 0.3-1.9-0.5-1.8-0.8 0-0.2 0.2-0.2 0.2-0.4s-0.1-0.3-0.3-0.4c-0.3-0.1-0.4 0.1-0.6 0.1-0.5 0.2-0.7 0.2-1.1 0.3s-0.9 0.2-1.1 0.1c-0.2 0-0.3-0.3-0.3-0.5v-0.4c0-0.3-0.1-0.4-0.3-0.6-0.1-0.1-0.2-0.2-0.3-0.4-0.2-0.1-0.4 0-0.5-0.1v-0.5c0.3-0.2-1-2.2-1.3-2.4m5.8 4c0.1-0.2 1.1-0.9 1.3-1 0.1 0 0.3 0.4 0.3 0.5-0.1 0.2-1 0.8-1.2 1-0.2-0.2-0.3-0.3-0.4-0.5m7-3.2s0.1-0.1 0.1 0.1c-0.1 0.8-1.1 2.8-1.4 3.4-0.3 0.5-2.1 3.2-2.3 3.2-0.1 0.1-1.4 1.6-2 2s-1.3 0.9-1.9 1.3c-0.4 0.2-2.8 1.3-4.5 1.5-2.2 0.3-4.2 0.3-4.2 0.2s0.2-0.1 0.3-0.1c0.7 0 2.6-0.1 3-0.2s1.5-0.2 1.9-0.3 1.7-0.5 2.2-0.7 1.4-0.7 1.9-1 1.3-1 1.6-1.3c0.4-0.3 2.3-2.5 2.7-3.1s1.6-2.5 1.7-2.7c0-0.1 0.6-1.5 0.9-2.3m-15.9 17.4c-0.1 0-0.3 0-0.3-0.1s0.3-0.1 0.4-0.1c0 0.1 0 0.2-0.1 0.2m0.3-0.4c-0.1 0-0.6 0-0.6-0.1s0.6-0.2 0.8-0.2c-0.1 0.1-0.2 0.2-0.2 0.3m0.2-0.5c-0.1 0-0.8 0-0.8-0.2 0-0.1 0.9-0.2 1.1-0.1l-0.3 0.3m0.5-0.5c-0.3 0-1.6 0-1.2-0.3 0.4 0 1.1 0 1.6-0.1-0.2 0-0.4 0.3-0.4 0.4m0.5-0.6c-0.4 0.2-0.9 0.1-1.3 0-0.2 0-0.5 0-0.5-0.1 0-0.2 0.8-0.2 1-0.2 0.5 0 0.9 0 1.3-0.1-0.2 0.1-0.4 0.2-0.5 0.4m0.8-0.6c-0.5 0.1-0.9 0.2-1.5 0.1-0.1 0-1.1 0-1.1-0.1 0-0.2 2.2-0.3 2.5-0.4 0.2 0 0.5-0.1 0.7-0.1-0.1 0.1-0.5 0.4-0.6 0.5m0.9-0.7c-0.1 0-0.8 0.1-1 0.1-0.1 0-1.3 0.1-1.6 0.1-0.2 0-0.9 0-0.9-0.1 0-0.2 0.8-0.2 1.1-0.2 1.5 0 3-0.3 3.4-0.4-0.2 0.2-0.9 0.5-1 0.5m4.4-1.8c-2.6 1-3.2 1.1-3.5 1.2-0.2 0-0.3 0.1-0.6 0.1-0.2 0-1 0.2-1.3 0.2s-2.3 0.1-2.4 0.1c-0.1-0.1-0.3-0.3 0.2-0.3h1.1c0.4 0 2.2-0.2 2.2-0.3-0.5 0-2.4 0.2-2.8 0.2-0.1 0-0.9 0-0.8-0.2 0-0.2 0.2-0.1 0.3-0.1s1.2 0 1.7-0.1c0 0 0.1 0 0.1-0.1s0 0-0.1 0c-0.2 0-1.1 0.1-1.5 0-0.1 0-0.6 0-0.6-0.1 0-0.2 0.3-0.2 0.5-0.2 0.9 0 1.9-0.1 2.8-0.2 0.2 0 1.4-0.2 1.7-0.3 0.1 0 0.2 0 0.2-0.1-0.4 0-2.3 0.4-4.8 0.4-0.1 0-0.4 0-0.4-0.1s0.4-0.1 0.5-0.1c0.4 0 1.4-0.1 1.5-0.1 0.4 0 1.3-0.1 2.4-0.3s1.1-0.2 1.8-0.4 2.1-0.7 2.8-1.1c1-0.6 2.8-1.8 4.1-3.6 0.4-0.6 1.8-2.3 2.5-3.9 0.2-0.4 0.4-0.9 0.6-1.2h0.1c0 0.2 0 0.3-0.1 0.4-0.2 1-1.1 2.4-1.2 2.6s-0.9 1.3-1 1.5-0.4 0.5-0.5 0.8c0.1 0 0.3-0.3 0.5-0.4 0.1-0.2 0.7-1 1-1.4s0.8-1.6 0.9-1.8 0.1-0.2 0.2-0.2v0.4c-0.1 0.3-0.3 0.7-0.4 1-0.2 0.3-0.9 1.3-0.9 1.7 0.1 0 0.8-1.3 0.9-1.3 0.1 0.1-0.2 0.8-0.4 1.2s-1.9 2.5-2 2.7c-0.1 0.1-0.4 0.4-0.5 0.6 0.1 0 0.1-0.1 0.2-0.1 0.7-0.5 1.8-2.2 2.1-2.4-0.1 0.3-0.8 1.4-1.2 1.9-0.6 0-3.1 2.4-5.9 3.4m6-2.4-0.4-0.4v-0.1c0-0.1 0-0.1 0.2-0.4 2.8-3.5 2.8-7.6 2.8-9.9 0-0.1-0.1-0.5-0.2-0.5s-0.2 0.2-0.3 0.3-2.6 3.5-3 4c-0.4 0.4-0.3 0.4-0.6 0.5-0.1-0.4-0.3-0.9-0.5-1.4 0-0.1-0.1-0.2-0.1-0.3s0.2-0.2 0.3-0.3c1-0.8 3.8-3.5 4.4-4.9 0.1 0.2 0.1 0.4 0.2 0.7 0.4 1.5 0.4 3.1 0.3 3.6 0 0.5 0 3.6-1.5 6.5-0.1 0.2-0.6 1-0.8 1.3l-0.6 0.9c0.1 0.2 0 0.4-0.2 0.4 0.1 0 0 0 0 0m-2.5-7c0.2-0.1 0.4-0.3 0.5-0.1l-0.6 0.6c0.3-0.1 0.6-0.2 0.8-0.4v0.2c-0.2 0.3-0.5 0.5-0.7 0.8 0.1 0 0.3-0.1 0.4-0.1s0.1-0.1 0.2-0.1c0 0.1-0.1 0.2-0.1 0.3-0.6 1-1.6 1.1-2.2 0.8-0.1-0.1-0.4-0.3-0.4-0.4 0-0.2 1.8-1.4 2.1-1.6m-0.2-1.9c-0.1 0.2-0.2 0.4-0.4 0.5-0.2 0.2-2.4 1.8-2.8 2-0.2 0.1-0.4 0.1-0.6 0.2 0-0.1 3.5-2.7 3.8-2.9 0.2 0 0.1 0.1 0 0.2m0.6-1.4c0.2 0.1-0.1 0.3-0.2 0.4-1.7 1.2-3.3 2.5-5 3.7-0.1 0.1-0.2 0.3-0.4 0.1 0.1-0.1 5.4-4 5.6-4.2m-0.3-0.1c0.1 0.1 0 0.1-0.1 0.2-1.3 0.9-4.7 3.5-5.1 3.8 0 0-0.1 0.1-0.2 0.1 0-0.1 0.1-0.2 0.2-0.3 0.7-0.6 5-3.7 5.2-3.8m1.4-9.7s0.5-0.5 1.2-0.5c0.7-0.1 1.3 0.3 1.9 1 0.3 0.4 0.6 0.9 0.7 1.5v0.2c0 0.2-0.6 0-1 0-0.6 0-1.3 0.5-1.8 0.9-0.3 0.3-1.1 1-1.5 1.4s-5.5 4.8-12.6 4.8c-8.3 0-13.4-5.6-14-6.1-0.5-0.4-1.2-1-1.9-1-0.3 0-1 0.2-1 0v-0.2c0.1-0.7 0.4-1.1 0.7-1.5 0.6-0.7 1.2-1.1 1.9-1s1.2 0.5 1.2 0.5c0.8 0.5 6.1 5.7 12.7 5.7 7.1 0 12.4-5.2 13-5.6 0.3 0 0.4 0 0.5-0.1m-6.5 3.2c0 0.1-0.5 0.3-0.6 0.3-0.5 0.2-0.8 0.3-1.3 0.5-0.3 0.1-0.5 0.2-0.8 0.2-0.4 0-0.8 0.2-1.2 0.2v0.1c1.1-0.1 2.1-0.4 3-0.7 0.3 0 0.5-0.1 0.7-0.2 0.1 0 0.3-0.1 0.4 0 0 0.2-0.2 0.2-0.4 0.3-0.1 0.1-0.3 0.1-0.5 0.2-0.3 0.1-0.6 0.2-1 0.3-0.3 0.1-0.7 0.2-1 0.3s-0.5 0.1-0.8 0.2c-0.1 0-0.2 0-0.2 0.1 0.8-0.1 1.5-0.3 2.2-0.4 0 0.1-0.1 0.1-0.1 0.1-0.6 0.3-1.3 0.5-2.1 0.6-0.7 0.1-1.4 0.3-2.1 0.3-1 0.1-2.1 0-3-0.1-0.2 0-1.5-0.3-1.9-0.4-0.2-0.1-2.1-0.8-2.6-1 0-0.1 0.1-0.2 0.2-0.2 0.5 0.1 1.8 0.5 2 0.5-0.1-0.2-1.4-0.5-1.8-0.7l0.1-0.2c1.7 0.4 3.7 0.8 5.7 0.9 0.8 0 1.7 0 2.5-0.1 0.5 0 0.9-0.1 1.4-0.2 0.2 0 0.5-0.1 0.7-0.1 0.3-0.1 0.5-0.1 0.8-0.2s0.6-0.2 0.8-0.3h0.2c0.1 0 0.1-0.1 0.2-0.1s0.2 0 0.2-0.1c0-0.2 0.2-0.2 0.3-0.1m-8.9 0.4c0-0.2 0.2-0.2 0.3-0.2s0.8 0.1 0.9 0.2c0 0.1 0 0.2-0.1 0.3-0.3 0-0.9-0.1-0.9-0.1-0.2-0.1-0.2-0.1-0.2-0.2m0.3-0.3c-0.2 0-0.2-0.1-0.2-0.2v-0.2c0.1-0.1 1 0 1 0.1v0.2c0 0.2-0.6 0.1-0.8 0.1m0.9-1c-0.2 0.1-0.7 0-0.9 0-0.1 0-0.1-0.2 0-0.2 0.2 0 0.7 0 0.9 0.1 0.1 0 0 0.1 0 0.1m0.1 0.8v-0.6c0-0.2 0-0.4 0.1-0.4 0.3-0.1 0.2 0.3 0.2 0.5v0.6c0 0.2 0 0.6-0.2 0.7-0.4 0-0.2-0.5-0.1-0.8m-1-0.7c0.1 0 0.9 0 0.9 0.2 0 0.1 0 0.2-0.1 0.3-0.1 0-0.9-0.1-0.9-0.2-0.1-0.1 0-0.3 0.1-0.3m2.5 1.2s0.1 0.1 0.2 0.1c0.1 0.2-0.1 0.2-0.4 0.2h-0.5c-0.1 0-0.3 0-0.3-0.1s0-0.2 0.1-0.2 0.8-0.1 0.9 0m-0.8-0.6c-0.1 0-0.1-0.2-0.1-0.3s0.9-0.1 1 0 0 0.1 0 0.2-0.8 0.1-0.9 0.1m0.7 0c0.1 0 0.3 0.1 0.3 0.2s0 0.1-0.1 0.2h-0.5c-0.1 0-0.4 0-0.5-0.1s0-0.2 0.1-0.3 0.2 0 0.3 0 0.3 0.1 0.4 0m0.4-0.9c0.1 0 0.1 0.2 0.1 0.4s0.1 1.1 0.1 1.3c0 0.3-0.3 0-0.3-0.5s-0.1-1.2 0.1-1.2m-1 0c0.2 0 0.7-0.1 0.8 0 0.1 0 0 0.2-0.1 0.3-0.1 0-0.8 0-0.8-0.1s0-0.1 0.1-0.2m4.8-0.3c-0.1 0-0.4 0.1-0.4 0s0.4-0.2 0.5-0.3h0.1s0.1 0 0.1 0.1c0.1 0-0.1 0.1-0.3 0.2m0.5 0c0 0.1 0.1 0.1 0.1 0.2s-0.6 0.3-0.7 0.3-0.2-0.2-0.2-0.3 0.1-0.1 0.3-0.2c0.3 0.1 0.4-0.1 0.5 0m-1.1 1.2c-0.1-0.2-0.1-0.4-0.2-0.6 0-0.1-0.1-0.2-0.2-0.4 0-0.1-0.1-0.4 0.1-0.3 0.1 0 0.1 0.3 0.2 0.4 0.1 0.3 0.2 0.5 0.3 0.8 0.1 0.1 0.3 0.5 0 0.5-0.1 0-0.1 0-0.2-0.1v-0.3m-0.7 0.6c-0.1 0-0.1-0.2-0.1-0.3l0.6-0.2c0.1 0 0.2 0.2 0.1 0.3 0 0.1-0.2 0.2-0.6 0.2m-0.1-0.4c-0.1 0-0.1-0.1-0.1-0.3 0-0.1 0.4-0.2 0.7-0.2 0.1 0.1 0.1 0.3 0.1 0.3-0.1 0.2-0.6 0.3-0.7 0.2m0.4-0.8c0 0.1 0.1 0.2 0 0.2 0 0-0.1 0.1-0.2 0.1s-0.3 0.1-0.3 0.1c-0.1 0-0.2-0.2-0.1-0.3 0-0.1 0.4-0.1 0.5-0.2 0-0.1 0.1 0 0.1 0.1m-0.7-0.2c-0.1 0-0.1-0.1-0.1-0.2 0 0 0.6-0.3 0.6-0.1 0.1 0.3-0.4 0.3-0.5 0.3m-0.5 0.5c0-0.2-0.1-0.4-0.1-0.5s-0.1-0.2 0.1-0.2 0.2 0.3 0.2 0.5c0.1 0.4 0.2 0.9 0.3 1.2 0 0.1-0.2 0.1-0.3 0 0-0.2-0.2-1-0.2-1m0 1.1c-0.2 0.1-0.8 0.1-0.9 0.1s-0.1-0.1-0.1-0.2 0.1-0.1 0.2-0.1 0.7-0.1 0.8-0.1c0.1 0.1 0.1 0.3 0 0.3m-0.8-0.3c-0.1 0-0.2-0.2-0.2-0.3s0.4-0.1 0.4-0.1c0.1 0 0.4-0.1 0.4 0.1s0.1 0.2 0 0.3c0-0.1-0.7 0-0.6 0m0.7-0.7c0 0.1-0.3 0.1-0.4 0.1-0.2 0-0.4 0.1-0.5 0s-0.1-0.3 0-0.3 0.2-0.1 0.3-0.1c0.2 0 0.4-0.1 0.5 0s0.1 0.1 0.1 0.3m-0.2-0.5c-0.1 0-0.4 0.1-0.5 0.1s-0.3 0.1-0.3 0c-0.1-0.4 0.6-0.3 0.7-0.3s0.2 0.2 0.1 0.2m2.7 0.8c0-0.1 0.2-0.2 0.3-0.2 0.1-0.1 0.3-0.2 0.4-0.2s0.1 0.1 0.2 0.1c0 0.1-0.2 0.2-0.3 0.2-0.2 0.1-0.3 0.2-0.4 0.2s-0.1 0-0.2-0.1m0.5-1.2c-0.1-0.1-0.2-0.3-0.2-0.4-0.1-0.1 0.1-0.3 0.4 0.1 0.1 0.3 0.3 0.5 0.4 0.7 0.1 0.1 0.3 0.5 0.1 0.5-0.1 0-0.2-0.1-0.2-0.2-0.1 0-0.5-0.7-0.5-0.7m0.1 0.7c-0.1 0.1-0.6 0.3-0.7 0.2-0.1 0-0.1-0.1-0.1-0.2s0.2-0.1 0.3-0.2c0.2-0.1 0.4-0.2 0.5-0.1s0 0.3 0 0.3m0.4-4.3c-0.6 0-0.4-0.1-0.5-0.2 0-0.1 0.2-0.2 0.4-0.2 0 0 0.3-0.1 0.4-0.2 0.2-0.1 0.3-0.1 0.4-0.2 0.1 0 0.2-0.1 0.2-0.2-0.2 0-0.7 0.2-0.7 0.2-0.3 0-1 0.3-1.1 0.3-0.1-0.2 0.1-0.5 0.3-0.5 1.3 0.1 2.3-0.8 3.6-1.9 0 0.2-2 2.9-3 2.9m5-1.3c-0.2 0.1-0.4 0.1-0.5 0.2 0.1 0.4-0.4 0.4-0.7 0.4v0.2c-0.3 0.4-0.9 0.1-1.3 0.1 0 0.1 0.3 0.1 0.3 0.2s-0.3 0.2-0.5 0.2-0.5-0.2-0.7-0.2c0 0 0.1 0.1 0.1 0.2-0.1 0.2-0.8 0.1-0.8-0.1 0-0.1 0.8-0.4 1.1-0.4 0.4-0.1 0.6-0.2 1-0.3s0.7-0.3 1-0.4c0.1-0.1 0.3-0.2 0.4-0.3-0.1 0-0.2 0.1-0.3 0.1s-1.6 0.6-1.8 0.6c-0.1 0-0.2-0.1-0.2-0.2s0.4-0.5 0.4-0.5c0.2 0 2.8-1.1 3-1.2s0.6-0.4 0.6-0.2c0 0.1-0.8 1.4-1.1 1.6m5.7-3.5c-0.1 0.1-0.2 0.3-0.2 0.3-0.1 0.3-0.3 0.3-0.5 0.4 0.1 0.4-0.3 0.5-0.6 0.6 0 0.1 0.1 0.1 0.1 0.1 0 0.1-0.8 0.4-0.8 0.5s0.1 0.1 0 0.2-0.1 0.2-0.3 0.2c-0.2 0.1-0.4 0-0.6 0.1 0 0.1 0.1 0.1 0.1 0.1-0.2 0.4-0.9 0.2-1.3 0.2 0.1 0.1 0.4 0 0.4 0.2 0 0.1-0.3 0.2-0.4 0.2h-0.7c0.4 0.2-0.3 0.4-0.5 0.2 0.1-0.1 0.4-0.6 0.5-0.7 0.1 0 0.3-0.1 0.4-0.1 0.2-0.1 0.9-0.4 0.9-0.4 0.4-0.2 0.9-0.4 1.3-0.7-0.4 0.1-2.1 0.9-2.4 0.8 0-0.1 0.1-0.3 0.2-0.4 0.1-0.2 0.3-0.4 0.5-0.5 0.1 0 0.8-0.3 1-0.4 0.1 0 2.4-1.4 2.5-1.5 0.2-0.1 0.3-0.2 0.5-0.1 0.1 0.5 0 0.6-0.1 0.7m1.8-3.7c0.1 0.2-0.9 1.5-1.2 1.8 0 0.1 0.1 0.1 0.1 0.1 0 0.1-0.2 0.3-0.3 0.4s-2.7 2.3-4 2.6c-0.5 0.1-0.4 0-0.5-0.1-0.1-0.2 0.3-0.6 0.6-0.7 0.2-0.1 2.4-1.3 2.7-1.6-0.2 0-1.1 0.5-1.3 0.6s-0.5 0.1-0.5 0c0.1-0.1 2-1.4 2.2-1.6 0.3-0.1 1.9-1.4 2.2-1.5m1-4v0.3c0 0.2-0.6 1.6-1.5 3-0.6 0.9-4.1 3.5-4.4 3.6 0.3-0.2 0.9-1.4 1.1-1.6 2.6-1.7 3.1-2.6 3.2-2.7 0 0-2.3 2-2.7 2-0.1-0.2 0.4-1.1 0.6-1.2 0.1-0.1 1-0.6 1.4-1s1.8-2.1 2-2.2c0-0.1 0.1-0.3 0.3-0.2m-1.3 0.6c-0.2 0.3-1.9 2.5-3.1 2.5-0.2 0 0.2-0.6 0.2-0.6s1-0.7 1.9-1.6c0.4-0.4 0.7-0.9 0.7-0.9s-1.2 1-1.4 1.2c-0.2 0.1-0.8 0.6-0.9 0.5s0.4-1.4 0.5-1.5 0.3-0.4 0.4-0.3-0.2 0.6-0.1 0.6 0.5-0.8 0.6-1c0-0.1 0.2-0.2 0.3-0.1 0.1 0-0.1 0.5 0.1 0.3s0.4-0.8 0.7-0.8c0.1 0-0.1 0.3-0.1 0.5 0.5-0.8 0.8-1 0.9-1s0 0.3 0 0.3 0.1-0.1 0.2-0.3c0.2-0.4 1-1 1.1-0.9 0.1-0.2-1.7 2.7-2 3.1m-34.6 6.8c0.2-0.1 0.4 0 0.5 0.1s2.4 1.4 2.5 1.5c0.2 0.1 0.9 0.4 1 0.4 0.3 0 0.4 0.3 0.5 0.5 0.1 0.1 0.2 0.2 0.2 0.4-0.2 0.1-2-0.8-2.4-0.8 0.4 0.3 0.9 0.5 1.3 0.7 0.1 0 0.7 0.4 1 0.4 0 0 0.3 0.1 0.4 0.1 0 0.1 0.4 0.6 0.5 0.7-0.2 0.2-0.9 0-0.5-0.2 0 0-0.5 0.1-0.7 0-0.1 0-0.4-0.1-0.4-0.2 0-0.2 0.4-0.1 0.4-0.2-0.5 0-1.1 0.1-1.3-0.2 0-0.1 0.1-0.1 0.1-0.2-0.1-0.1-0.4 0-0.6-0.1l-0.3-0.3v-0.2c-0.1-0.1-0.8-0.4-0.8-0.5s0.1-0.1 0.1-0.1c-0.3-0.1-0.7-0.2-0.6-0.6-0.2-0.1-0.4-0.2-0.5-0.4l-0.2-0.3c-0.1-0.3-0.2-0.4-0.2-0.5m0.6-1.8c0.3 0.2 2.2 1.5 2.2 1.6 0.1 0.1-0.2 0.1-0.5 0-0.2-0.1-1.1-0.6-1.3-0.6 0.2 0.2 2.4 1.5 2.7 1.6 0.2 0.1 0.7 0.5 0.6 0.7 0 0.1 0 0.2-0.5 0.1-1.3-0.3-3.8-2.5-4-2.6-0.1-0.1-0.3-0.3-0.3-0.4s0.1-0.1 0.1-0.1c-0.4-0.4-1.1-1.3-1-1.5 0.3 0.1 1.8 1 2 1.2m-2.7-5.2c0.2 0.1 1.6 1.8 2 2.2s1.3 0.9 1.4 1c0.2 0.1 0.6 1 0.6 1.2-0.4 0-2.7-2-2.7-2 0.1 0.2 0.6 1.1 3.2 2.7 0.1 0.3 0.8 1.4 1.1 1.6-0.3-0.1-3.8-2.7-4.4-3.6-0.9-1.4-1.5-2.8-1.5-3s-0.1-0.2 0-0.3 0.2 0.1 0.3 0.2m27.8-1.8c0.3 0.2 0.5 0.3 0.8 0.5 0.1 0 0.5 0.3 0.4 0.4s-0.3-0.1-0.3-0.2c-0.3-0.1-0.6-0.4-0.9-0.7v0zm0.5-0.2c0.1 0 0.1 0.1 0 0 0.2 0.1 0.3 0.2 0.4 0.3s0.3 0.2 0.4 0.3c0 0 0.2 0.2 0.2 0.3s-0.2 0-0.3-0.1c-0.2-0.2-0.5-0.5-0.7-0.8m-0.8-1.7h0.2c0.1 0 0.2 0.1 0.2 0.2-0.2 0.1-0.4 0-0.4-0.2m1.6 1.8c0.2 0 0.5 0.2 0.6 0.4-0.1 0.1-0.2-0.1-0.3-0.1l-0.3-0.3m-2-0.9c0.1 0.1 0.3 0.1 0.3 0.2-0.2 0.1-0.4 0-0.3-0.2m-0.6 1.2c0.2-0.1 0.3 0.1 0.3 0.3-0.1-0.1-0.3-0.1-0.3-0.3m0.5 2c0.2 0.1 0.5 0.2 0.6 0.5-0.2 0.1-0.5-0.2-0.4-0.1 0.2 0-0.2-0.3-0.2-0.4m-1.4-0.4c0.2 0.1 0.4 0.2 0.5 0.4-0.2-0.1-0.7-0.3-0.5-0.4m1.2 0.8h0.1c0.1 0.1 0.4 0.2 0.4 0.4-0.2 0-0.3-0.1-0.4-0.2-0.1 0-0.3-0.2-0.1-0.2m-0.1-1.2c-0.2 0-0.4-0.2-0.6-0.4 0.1 0 0.6 0.2 0.6 0.4m-0.8 1.3c-0.3-0.1-0.5-0.2-0.6-0.4 0.1-0.2 0.3 0 0.5 0.1 0 0.1 0.1 0.2 0.1 0.3m-0.1-1.3c0.3 0 0.5 0.1 0.6 0.3-0.2 0-0.4-0.1-0.6-0.3m-17.8 33.3c-0.3-0.3-0.7-0.6-1-0.9-0.3-0.2-0.5-0.5-0.7-0.7-0.1-0.1-0.4-0.4-0.4-0.5 0 0 1.5 1.5 1.7 1.6 0.3 0.3 0.7 0.5 1 0.8 0.2 0.1 0.7 0.5 0.8 0.5 0 0 0.8 0.4 0.9 0.6-0.5-0.1-0.8-0.4-1.2-0.6-0.3-0.3-0.7-0.5-1.1-0.8m7.8-14.3c0.3 0 0.6 0.1 0.8 0.1v0.1c-0.3 0-0.7-0.1-1.1-0.1s-1-0.1-1-0.2 0-0.1 0.1-0.1c0.5 0.1 0.8 0.2 1.2 0.2m-1.2-0.6c0.1-0.1 0.3 0 0.4 0 0 0 1.5 0.2 2 0.3v0.1c-0.6-0.1-1.4-0.1-1.9-0.2-0.1 0-0.5-0.1-0.5-0.2m3-3.3c0 0.2-1 0-1.1 0v-0.1c0.1-0.1 0.7 0 0.8 0 0.1 0.1 0.3 0 0.3 0.1m-0.3 0.5c0 0.1-0.9 0-1.2 0v-0.1c0.3 0 1.2 0.1 1.2 0.1m0.7-1.1c0 0.1-1.4 0.1-1.4 0s0.1-0.1 0.2-0.1c0.2 0.1 1.2 0 1.2 0.1m-6.1 22.4c0 0.1-0.5 0-0.8-0.2-0.4-0.1-0.8-0.4-1.2-0.6-0.2-0.1-1-0.5-1.4-0.8-0.3-0.2-0.6-0.5-1-0.7 0.6 0.4 3.7 2 4.2 2.2 0 0 0.2 0 0.2 0.1m4.5-25.1h-1.8c0-0.1 0.1-0.1 0.2-0.1 0.3 0 1.6 0 1.6 0.1m-6.4-11c-0.1 0.1-0.2 0.2-0.4 0.2 0-0.2 0.1-0.3 0.3-0.3 0.1-0.1 0.2-0.2 0.4-0.1 0 0-0.2 0.1-0.3 0.2m1.3-1c-0.1 0.1-0.2 0.2-0.4 0.2 0-0.1 0.2-0.2 0.2-0.2 0.1-0.1 0.2-0.1 0.3-0.2 0.1 0.1 0 0.2-0.1 0.2m0.5 0.2s0.1 0 0 0c-0.1 0.2-0.3 0.3-0.5 0.4 0-0.2 0.3-0.3 0.5-0.4m-1.4 1.2c-0.1 0.1-0.2 0.2-0.4 0.2 0-0.2 0.2-0.3 0.3-0.4s0.2-0.1 0.3-0.1c0 0.1-0.1 0.2-0.2 0.3m-0.7 2.6c0-0.2 0.1-0.5 0.2-0.7 0.1 0.1-0.1 0.8-0.1 0.9s-0.2 1.4-0.3 1.6v1.2c0 0.1 0.1 0.3 0 0.3 0-0.1 0-0.1-0.1-0.2-0.1-1 0-1.8 0-1.9 0.1-0.3 0.2-1 0.3-1.2m2.4-3.4c0.2 0.1-0.3 0.4-0.4 0.4 0-0.2 0.2-0.3 0.4-0.4m-3.9 2zm2.1-0.6c0-0.1 0.1-0.1 0.1-0.2 0.1-0.1 0.3-0.3 0.5-0.2-0.1 0.2-0.3 0.4-0.6 0.4m-0.1-3.9c0-0.1 0.2-0.2 0.3-0.2 0 0.2-0.1 0.2-0.3 0.2m2.1 2.9h0.1c0 0.1-0.2 0.2-0.3 0.2-0.1 0.1-0.2 0.1-0.3 0.2 0.1-0.1 0.4-0.3 0.5-0.4m-1.5-1.7c-0.1-0.1 0.3-0.4 0.3-0.2 0.1 0.1-0.2 0.2-0.3 0.2m-1.1-2.1c0-0.1 0.2-0.2 0.4-0.2 0 0.2-0.2 0.3-0.4 0.2v0m5.4 0.6v0c0.4-0.1 1.5-0.1 1.6 0 0 0.1-0.9 0.1-1.2 0.1-0.2 0-0.3 0-0.4-0.1m-2.2 10.8c0-0.1 0.1-0.1 0.1-0.1h1v0.1c-0.1 0-0.9 0.1-1.1 0m2.6 2.9c-0.3 0-1.2 0.1-1.2 0s1.1-0.2 1.1-0.1l0.1 0.1m-2.8-3.4c0-0.1 0.1-0.1 0.2-0.1 0.3 0 1.1 0 1.1 0.1s-1.3 0.2-1.3 0m0.6 1.5c0-0.1 1-0.1 1.2-0.2l0.1 0.1c-0.3 0.1-1.1 0.2-1.3 0.1m-0.2-0.5c0.1-0.1 1-0.2 1.2-0.1v0.1c-0.2 0-1.1 0.1-1.2 0m0.9 2c0-0.2 1.2-0.2 1.6-0.1-0.1 0.1-0.2 0.1-0.4 0.1-0.1-0.1-1.1 0.1-1.2 0m-0.4-1c0-0.1 1.1-0.2 1.6-0.1-0.1 0.1-1.6 0.2-1.6 0.1m0.2 0.5c0.1-0.1 1-0.1 1.2-0.2v0.1c-0.3 0-1.1 0.2-1.2 0.1m3.5 26.1c-0.7 0-1.5-0.1-2-0.2 0.7 0 1.4 0.2 2.2 0.1h0.5c0.1 0 0.3 0 0.4 0.1h-1.1m-2.7-0.4c-0.1 0.1-0.2 0-0.2 0-0.2 0-1-0.2-1.1-0.3-0.9-0.2-1.7-0.5-2.5-0.9 0.4 0.1 1.8 0.6 2.3 0.8 0.4 0.1 1.4 0.3 1.5 0.4m0.1-38.1s0.1 0 0 0c0.3-0.1 1-0.1 1 0 0.1 0.2-0.9 0.1-1 0m-0.2 0.6c0.2-0.1 0.6-0.1 0.8-0.1v0.1h-0.8m0.5 25.1-0.2 0.3c0 0.1-1.5-0.5-1.5-0.4 0 0 0 0.1 0.1 0.2 0.4 0.2 1.2 0.5 1.2 0.7 0 0 0 0.2-0.1 0.2-0.1 0.1-1.6-0.8-1.7-0.7 0 0 0 0.1 0.2 0.3 0.2 0.1 1.3 0.6 1.3 0.8 0 0.1 0 0.1-0.1 0.2l-1.9-1.1v0.1s1.7 1.1 1.7 1.3c0 0.1 0 0.1-0.1 0.1 0 0-2.1-1.4-2.1-1.3-0.1 0.1 1.7 1.2 2 1.5l-0.2 0.2c-0.7-0.4-4.4-3.2-4.9-3.5 0.2-0.4 0.5-0.8 0.7-1 3.2 1.6 5.5 2 5.6 2.1m-6.8 6.1c1.3-0.1 1.4-0.7 1.4-0.9-0.1-0.2-0.3-0.3-0.2-0.4 0-0.2 0.3-0.4 0.5-0.4s0.5 0.1 0.8 0.3 1.5 0.4 1.7 0.3 0.3-0.4 0.3-0.5-0.1-0.3 0-0.5c0-0.2 0.5-0.8 0.5-0.9 0.1-0.1 0.5 0 0.5-0.1 0.1-0.1 0-0.4 0-0.5 0.4-0.6 0.9-1.6 1.3-2.2 0 0.1 0.1 1.8 0 2.8-0.1 1.5-0.3 2.1-0.8 2.8-0.4 0.7-1.4 1.9-3 1.6-1.5-0.3-2.6-1-3-1.4m0.9-1.5c-0.2-0.1-1.1-0.7-1.2-0.9 0.1-0.1 0.2-0.3 0.3-0.5 0.2 0.1 1.1 0.8 1.3 0.9-0.1 0.2-0.3 0.3-0.4 0.5m-1.6-2.6c0-0.1-0.2-0.3-0.2-0.4 0.3 0.1 3.4 2.5 3.7 2.7 0.1 0.1 0.2 0.1 0.2 0.2-0.2 0-0.8-0.2-0.9-0.3-0.2 0-2.6-1.8-2.8-2.2m-0.2 1.8c0.3 0.2 0.6 0.4 0.9 0.7 0.3 0.2 0.6 0.4 0.9 0.7 0.1 0.1 0.3 0.2 0.3 0.2 0 0.1-0.2 0.3-0.4 0.4s-0.7 0.3-1.2 0c-0.1-0.1-0.9-0.7-1-1 0 0 0.1 0 0.2 0.1s0.3 0.2 0.4 0.2c0-0.1-0.1-0.1-0.1-0.2l-0.5-0.5v-0.2s0.1 0 0.2 0.1c0.2 0.1 0.4 0.2 0.6 0.2-0.2-0.2-0.4-0.5-0.6-0.6-0.1-0.5 0.1-0.3 0.3-0.1m16.1-4.1c1.4-0.4 3.2-1 4.9-2 0.2 0.3 0.4 0.5 0.6 0.9l-4.8 3.6c-0.1-0.1-0.1-0.1-0.1-0.2s1.2-0.9 1.3-1 0.2-0.3 0.2-0.3c0-0.1-1.6 1.2-1.7 1.1l-0.2-0.2c0-0.1 0.6-0.5 1.3-1.1 0.2-0.2 0.1-0.2 0.1-0.2l-1.5 1c-0.1-0.1-0.2-0.2-0.2-0.3s0.8-0.6 1-0.7c0.2-0.2 0.3-0.3 0.2-0.3 0 0-1.2 0.7-1.3 0.8-0.1 0-0.2-0.2-0.2-0.2 0-0.1 1.3-0.7 1.2-0.8 0-0.1-1.3 0.6-1.4 0.5s-0.1-0.2-0.2-0.3c0.1-0.2 0.6-0.3 0.8-0.3m6.5 0.3c-1.2 0.9-3.6 2.6-4.8 3.5-0.1-0.1-0.2-0.2-0.2-0.3s1.7-1.2 1.7-1.2l-0.1-0.1s-1.7 1.2-1.8 1.2-0.1-0.1-0.1-0.2c1.2-0.9 3.6-2.6 4.8-3.5 0.2 0.2 0.3 0.4 0.5 0.6m-0.7-1.3h0.2c-0.1 0.1-3.8 2.8-5 3.7-0.1 0.1-0.2 0.2-0.3 0.2-0.1-0.2 0.1-0.3 0.2-0.4 0.2-0.1 4.7-3.4 4.9-3.5m-1.2-0.5c-0.1 0.1-0.2 0.2-0.4 0.2 0-0.1 0.2-0.2 0.2-0.2 0.1-0.1 0.2-0.1 0.3-0.2 0.1 0.1 0 0.2-0.1 0.2m0.6 0.2c0.4 0.1-0.4 0.6-0.7 0.6 0.1-0.3 0.4-0.5 0.7-0.6m0.8 1.3c0.1 0 0.2 0 0.2 0.1 0.1 0.2-0.3 0.3-0.4 0.4-0.2 0.1-0.3 0.2-0.5 0.3 0.1-0.4 0.5-0.7 0.7-0.8m-20.3-0.9c0-0.4 0.7 0.2 0.8 0.5-0.4 0-0.6-0.3-0.8-0.5m0.6-0.4c0.1 0.1 0.3 0.1 0.3 0.3-0.1 0-0.2-0.1-0.3-0.1-0.1-0.1-0.2-0.1-0.3-0.2 0.1-0.1 0.2 0 0.3 0m4.7-32.2c1.5-0.8 2.7-1.1 4.2-1.1 1 0 2 0.1 3 0.5 2.2 0.9 4.3 3.4 3.8 6.5 0-0.2-0.1-1.6-0.4-2.7-0.2-0.8-1.5-2.7-3-3.5-0.6-0.3-1.8-0.6-2.8-0.7s-2.8 0.2-3.4 0.5-0.8 0.4-1.1 0.5c-0.1 0-0.3 0.2-0.3 0.1-0.2 0 0-0.1 0-0.1m0.6 0.3c-0.1 0-0.2-0.1-0.2-0.2s0.2-0.2 0.4-0.2 0.4 0.4 0.6 0.7c0.3 0.6 0.4 1.1 0.4 1.3s0 0.2-0.1 0.2-0.2-0.3-0.2-0.4c-0.2-0.7-0.8-1.3-0.9-1.4m5.1 6.4c0 0.3-0.3 0.6-0.6 0.6-0.4 0-0.6-0.3-0.6-0.6s0.3-0.6 0.6-0.6 0.6 0.3 0.6 0.6m0.9 5.1c0.3 0.3 0.4 0.7 0.4 1.2 0 0.6-0.2 1.2-0.6 1.6-0.5 0.4-1.1 0.7-1.9 0.7-1.5 0-2.6-1-2.6-2.3 0-0.6 0.5-1.4 0.8-1.5 0.2-0.1 0.6-0.4 0.8-0.2 0.1 0.1-0.3 0.3-0.3 0.3s-0.7 0.5-0.8 1.4c0 1 0.8 1.7 2.1 1.7 1.4 0 2.2-0.8 2.2-1.7 0-0.4-0.2-0.9-0.5-1.1-0.2-0.2-0.7-0.4-0.5-0.5 0.1-0.2 0.6 0.1 0.9 0.4m-0.6-5.1c0 0.5-0.4 0.9-0.9 0.9s-0.9-0.4-0.9-0.9 0.4-0.9 0.9-0.9c0.6 0.1 0.9 0.5 0.9 0.9m-0.5 0c0 0.2-0.2 0.4-0.4 0.4s-0.4-0.2-0.4-0.4 0.2-0.4 0.4-0.4 0.4 0.2 0.4 0.4m-0.8 9.1c0 0.1-0.1 0.2-0.2 0.2s-0.2-0.1-0.2-0.2 0.1-0.2 0.2-0.2 0.2 0 0.2 0.2m-4.3-4.1c0.1 0 0 0.2 0 0.2 0 0.3-0.1 0.6 0 0.9 0 0.4 0.1 0.7 0.1 1.1s0 0.7 0.1 1c0.1 0.4 0.2 0.7 0.2 0.8-0.1 0-0.3-0.5-0.3-0.7s-0.2-1.4-0.2-1.9v-0.4c-0.1 0-0.4 0-0.5 0.1 0 0.2 0 0.3 0.1 0.6 0.1 0.7 0 1.8 0 1.8s0 0.4-0.1 0.4-0.1-0.3 0-0.4v-1.4c0-0.5-0.2-1.6-0.3-1.6 0-0.1-0.1-0.4 0-0.4s0.1 0.3 0.2 0.3c0.3 0 0.6-0.1 0.7-0.1 0 0.1-0.1-0.3 0-0.3m-0.2 0.6c0.1 0 0.1 0.1 0.1 0.2 0 0.2-0.6 0.2-0.6 0.2s-0.1-0.1-0.1-0.2c0.1-0.2 0.5-0.2 0.6-0.2m0.5 4.3c0 0.2-0.2 0.4-0.5 0.4s-0.5-0.2-0.5-0.4 0.2-0.4 0.5-0.4 0.5 0.2 0.5 0.4m0.2 0.1c0 0.4-0.3 0.6-0.7 0.6s-0.7-0.3-0.7-0.6 0.3-0.6 0.7-0.6c0.4-0.1 0.7 0.2 0.7 0.6m-0.2-5.6s-0.2 1-0.1 2.9c0 0.6 0.3 1.5 0.4 1.8l0.4 1.2c0 0.1-0.9 0.7-1.2 0.9l-1.2-0.9c0-0.4 0.2-0.6 0.3-1.2 0.2-1.3 0-2.4-0.1-2.9s-0.3-1.2-0.5-1.7c0.7 0.1 1.4-0.1 2-0.1m7.7 1c0.1 0 0.4 0.1 0.7 0.1 0.1-0.1 0.1-0.4 0.2-0.3 0.1 0 0 0.3 0 0.4s-0.3 1.1-0.3 1.6v1.4c0 0.2 0.1 0.4 0 0.4s-0.1-0.4-0.1-0.4-0.1-1.1 0-1.8c0.1-0.3 0.1-0.4 0.1-0.6-0.1-0.1-0.4-0.1-0.5-0.1-0.1 0.1 0 0.2 0 0.4 0 0.5-0.2 1.7-0.2 1.9s-0.2 0.7-0.3 0.7c-0.1-0.1 0.1-0.4 0.2-0.8s0.1-0.7 0.1-1c0-0.4 0.1-0.8 0.1-1.1v-0.9c0-0.1-0.1-0.2 0-0.2 0-0.1-0.1 0.3 0 0.3m0.7 0.4c0 0.1-0.1 0.2-0.1 0.2s-0.6 0-0.6-0.2c0-0.1 0-0.2 0.1-0.2s0.6 0 0.6 0.2m-0.6 3.7c0.3 0 0.5 0.2 0.5 0.4s-0.2 0.4-0.5 0.4-0.5-0.2-0.5-0.4c0.1-0.2 0.3-0.4 0.5-0.4m0-0.2c0.4 0 0.7 0.3 0.7 0.6s-0.3 0.6-0.7 0.6-0.7-0.3-0.7-0.6 0.3-0.6 0.7-0.6m-0.5-4.9c0.6 0 1.3 0.1 1.9 0.2-0.2 0.5-0.5 1.4-0.6 1.7-0.1 0.6-0.1 2.1 0 2.8 0 0.4 0.2 0.8 0.3 1.2-0.4 0.3-0.8 0.7-1.2 0.9-0.3-0.2-1.2-0.8-1.2-0.9s0.4-1 0.4-1.2c0.1-0.3 0.4-1.2 0.4-1.8 0.2-1.9 0-2.9 0-2.9m-7.4 16.2c0.1 0 0.7 0.1 0.7 0.1s0.2-0.2 0.1-0.3-0.7-0.2-0.8-0.2c-0.2 0-0.2 0.2-0.2 0.3s0.1 0.1 0.2 0.1m0 0.5c0.1 0 0.5 0.1 0.6 0.1s0.1-0.1 0.2-0.2c0-0.1-0.1-0.1-0.1-0.2 0 0-0.6-0.1-0.7-0.1s-0.2 0-0.2 0.1v0.2c-0.2 0.1 0.2 0.1 0.2 0.1m8.4-20.1c-0.1 0.1 0 0.3 0 0.4 0 0.4 0.1 0.7 0.2 1 0 0.1 0.1 0.2 0.1 0.3s0 0.2 0.1 0.3c0.2-0.1 0.2-0.4 0.3-0.5 0.1-0.2 0.7-1.4 0.9-3.5 0-0.6-0.1-2.2-0.6-3-0.2-0.3-0.6-1.1-1.5-1.8-1.1-0.9-2.7-1.4-4.4-1.4-0.6 0-1.9 0.2-2.7 0.6 0.2 0.4 0.4 0.9 0.5 1.1 0 0.1 0.2 0.6 0.2 0.9l0.4-0.2c0.1-0.2 0.1-0.6 0.1-0.8 0-0.4-0.3-0.6-0.4-0.8s0.2-0.5 0.5-0.5 0.4 0.4 0.5 0.8-0.1 0.8-0.1 1.1c0.1 0 0.3-0.1 0.4-0.1l0.4-0.8c0.1-0.3-0.1-0.6-0.2-0.9s0.4-0.4 0.6-0.3 0.3 0.5 0.2 0.9c0 0.4-0.3 0.8-0.4 1.1h0.4 0.1c0.2-0.1 0.4-0.5 0.5-0.7 0.2-0.3 0-0.6 0-0.9s0.4-0.3 0.7-0.2c0.2 0.1 0.2 0.5 0 0.9-0.1 0.3-0.4 0.7-0.6 0.9 0.1 0 0.3 0 0.4 0.1 0.2-0.1 0.5-0.4 0.6-0.6 0.2-0.3 0.1-0.6 0.1-0.9s0.5-0.2 0.7-0.1c0.2 0.2 0.1 0.6-0.1 0.9s-0.6 0.6-0.8 0.8c0.1 0 0.3 0.1 0.4 0.2 0.2-0.1 0.5-0.3 0.7-0.5 0.3-0.2 0.2-0.6 0.3-0.8s0.5-0.1 0.7 0.1c0.1 0.2-0.1 0.6-0.3 0.9s-0.7 0.4-1 0.6c0.1 0.1 0.2 0.1 0.3 0.2 0.2 0 0.7-0.2 0.9-0.3 0.3-0.2 0.4-0.5 0.5-0.7s0.5 0 0.6 0.2-0.2 0.5-0.5 0.8c-0.3 0.2-0.8 0.3-1.1 0.4l0.3 0.3c0.2 0 0.6-0.1 0.8-0.1 0.3-0.1 0.5-0.4 0.7-0.6s0.5 0.1 0.6 0.4c0 0.2-0.3 0.5-0.7 0.6-0.3 0.1-0.7 0.1-1.1 0.1 0.1 0.1 0.2 0.2 0.3 0.4h0.6c0.4 0 0.6-0.3 0.8-0.4s0.5 0.2 0.5 0.5c0 0.2-0.4 0.4-0.8 0.5-0.3 0-0.6 0-0.8-0.1 0.1 0.1 0.1 0.3 0.2 0.5 0.1 0 0.3 0.1 0.5 0.1 0.3 0 0.5-0.2 0.7-0.3s0.4 0.3 0.4 0.5-0.4 0.3-0.7 0.3c-0.2 0-0.5-0.1-0.7-0.2 0 0.1 0.1 0.3 0.1 0.4 0.1 0 0.2 0.1 0.3 0.1 0.3 0.1 0.5-0.1 0.8-0.1 0.2 0 0.3 0.3 0.2 0.5s-0.4 0.2-0.8 0.1c-0.2 0-0.3-0.1-0.5-0.2v0.4c0.1 0 0.1 0.1 0.2 0.1 0.3 0.1 0.6 0 0.8 0s0.3 0.4 0.1 0.6c-0.1 0.2-0.5 0.1-0.8 0-0.1 0-0.2-0.1-0.3-0.2v0.3c0.2 0.2 0.5 0.1 0.7 0.1s0.2 0.4 0.1 0.5-0.5 0-0.8-0.1c-0.2-0.1-0.3-0.1-0.3-0.2m-4.1 16.1h-0.9v-1.5h0.9zm-0.2-0.2h-0.4v-0.9h0.4zm0.5 0.4h-1.5v-1.9h1.5zm-1.7 0.2h1.9v-0.4c0.8-0.1 1.7-0.1 2.6-0.1h0.7c0 0.1-0.2 0.1-0.3 0.1-0.7 0.1-2.4 0.1-2.4 0.3 0.8 0.1 2.8-0.1 2.8 0s-0.3 0.1-0.4 0.1c-0.4 0.1-1 0.1-1.4 0.2v0.1c0.5 0 1.8-0.2 1.8-0.2 0.1 0 0.1 0.1 0.1 0.2s-2 0.4-2.1 0.4-0.2 0-0.1 0.1c0.7 0 1.4 0 2.1-0.1 0.1 0 0.4 0 0.4 0.1 0 0.2-1.9 0.4-2.6 0.5v0.1c0.8-0.1 1.7-0.2 2.5-0.3 0.1 0 0.3-0.1 0.3 0s-0.2 0.2-0.3 0.2c-0.7 0.2-1.5 0.3-2.4 0.4-0.3 0-0.6 0.1-0.9 0.1-1.4 0.2-3 0.1-4.4 0-0.6-0.1-1.1-0.2-1.6-0.3-0.2 0-0.4-0.1-0.6-0.2 0-0.1 0.3-0.5 0.4-0.6 0.1 0 0.5 0.2 0.5 0 0-0.1-0.4-0.1-0.5-0.2 0-0.1 0.1-0.2 0.1-0.3 0.1 0 0.2 0.1 0.4 0 0-0.1-0.2-0.1-0.3-0.1 0.1-0.1 0.3-0.6 0.3-0.6h2.7 0.6v0.5zm1.8-1.8h1.3 1.3 0.8c0.1 0 0.4 0.1 0.2 0.3-0.1 0.1-0.6 0.1-0.8 0.1-0.4 0-0.8 0-1.1 0.1 0 0.2 0.2 0.2 0.4 0.2h0.7 0.8c0.1 0.3-0.1 0.3 0 0.4h-0.3c-1 0-2.2 0-3.2 0.1v-1.2m13.5 21.9s2.3-3 2.9-6.9-0.3-6.1-0.3-6.3c0 0-0.1-0.3 0-0.3s0.2 0.3 0.2 0.3c0 0.1 0.9 2.4 0.3 6.3s-2.9 6.9-2.9 6.9-0.2 0.4-0.3 0.3c0 0 0.1-0.2 0.1-0.3m-28.9 0.4c-0.1 0.1-0.2-0.2-0.3-0.2 0 0-2.3-3-2.9-6.9s0.3-6.1 0.3-6.3c0-0.1 0.1-0.4 0.2-0.3 0.1 0 0 0.3 0 0.3 0 0.1-0.9 2.4-0.3 6.3s2.9 6.9 2.9 6.9c0 0.1 0.2 0.2 0.1 0.2m-0.1-19.3c-0.1-0.1-0.2 0-0.2 0l-0.2 0.3c0 0.1-0.1 0.1-0.2 0 0 0-0.1-0.1 0-0.2l0.8-1.1c0-0.1 0.1-0.1 0.2 0l0.1 0.1c0.1 0 0.1 0.1 0.2 0.2 0 0 0.2 0.3 0 0.5-0.3 0.3-0.5 0.4-0.7 0.2m0.4-0.6c-0.1-0.1-0.1 0-0.2 0l-0.2 0.2v0.1s0.1 0 0.2 0.1c0 0 0.1 0 0.2-0.1s0.1-0.2 0-0.3m0.3 1.8c-0.1 0-0.2 0-0.3-0.1s-0.2-0.2-0.2-0.3c0-0.2 0.1-0.3 0.3-0.6s0.4-0.4 0.5-0.4 0.2 0 0.3 0.1 0.2 0.2 0.2 0.3c0 0.2-0.1 0.3-0.3 0.6-0.3 0.2-0.4 0.4-0.5 0.4m0.6-1.1s0-0.1-0.1-0.1h-0.1c-0.1 0-0.2 0.1-0.4 0.4-0.2 0.2-0.3 0.4-0.3 0.4s0 0.1 0.1 0.1h0.1c0.1 0 0.2-0.2 0.4-0.4 0.2-0.1 0.3-0.3 0.3-0.4m0.2 1.8c-0.1 0-0.2 0-0.3-0.1s-0.2-0.2-0.2-0.3 0-0.2 0.1-0.3l0.7-0.9c0-0.1 0.1-0.1 0.2 0 0.1 0 0.1 0.1 0 0.2l-0.6 0.8s-0.1 0.1-0.1 0.2v0.1h0.2l0.7-0.9s0.1-0.1 0.2 0c0 0 0.1 0.1 0 0.2l-0.7 0.9s-0.1 0.1-0.2 0.1m0.8 0.8s-0.1-0.1 0-0.2l0.2-0.4v-0.2s-0.1 0-0.1 0.1l-0.3 0.3c0 0.1-0.1 0.1-0.2 0 0 0-0.1-0.1 0-0.2l0.8-1.1s0.1-0.1 0.2 0l0.3 0.3s0.2 0.3 0 0.5c-0.1 0.2-0.2 0.2-0.4 0.2l-0.2 0.6c-0.2 0.1-0.2 0.1-0.3 0.1zm0.6-1.3c-0.1-0.1-0.2 0-0.2 0l-0.2 0.2v0.1s0.1 0.1 0.2 0.1c0 0 0.1 0 0.2-0.1s0.1-0.2 0-0.3m0.2 1.8c-0.1 0-0.1-0.1 0-0.2l0.8-1.1c0-0.1 0.1-0.1 0.2 0 0.1 0 0.1 0.1 0 0.2l-0.7 0.9v0.2l0.2 0.1s0.1 0.1 0 0.2c0 0.1-0.1 0.1-0.2 0zm1.2 0.9c-0.1 0-0.1-0.1-0.1-0.2v-0.1c0-0.1 0-0.1-0.1-0.2l-0.1-0.1h-0.2l-0.1 0.1s-0.1 0.1-0.2 0c-0.1 0-0.1-0.1 0-0.1l1-1h0.2c0.1 0 0.1 0.1 0.1 0.2l-0.5 1.3c0.2 0.1 0.1 0.1 0 0.1zm0.3-1.2c0.1 0 0 0 0 0l-0.4 0.3v0.1h0.1zm1 1.2h-0.2l-0.2 0.3c0 0.1-0.1 0.1-0.2 0-0.1 0-0.1-0.1 0-0.2l0.7-1.2c0-0.1 0.1-0.1 0.2 0l0.1 0.1c0.1 0 0.1 0.1 0.2 0.1 0 0 0.2 0.2 0 0.5-0.2 0.5-0.3 0.5-0.6 0.4m0.4-0.7h-0.2l-0.1 0.3v0.1h0.2s0.1 0 0.2-0.1c0-0.1 0-0.2-0.1-0.3m0.4 1.9c-0.1 0-0.1-0.1-0.1-0.2v-0.1c0-0.1 0-0.1-0.1-0.2l-0.1-0.1h-0.2l-0.1 0.1s-0.1 0.1-0.2 0c-0.1 0-0.1-0.1 0-0.1l0.9-1.1s0.1-0.1 0.2 0c0.1 0 0.1 0.1 0.1 0.2l-0.4 1.4c0.2 0.1 0.1 0.1 0 0.1zm0.3-1.2-0.3 0.3v0.1c0.1 0 0.1 0 0.1-0.1zm1.1 0.3c-0.1 0-0.1 0-0.2 0.1l-0.5 1c0 0.1-0.1 0.1-0.2 0.1s-0.1-0.1-0.1-0.2l0.5-1c0-0.1 0-0.1-0.1-0.2-0.1 0-0.1-0.1-0.1-0.2s0.1-0.1 0.2-0.1l0.5 0.2c0.1 0 0.1 0.1 0.1 0.2s0 0.1-0.1 0.1zm0.4 1.7c-0.1 0-0.1-0.1-0.1-0.2v-0.5c0-0.1 0-0.1-0.1-0.1 0 0-0.1 0-0.1 0.1l-0.2 0.4c0 0.1-0.1 0.1-0.2 0.1s-0.1-0.1-0.1-0.2l0.5-1.3c0-0.1 0.1-0.1 0.2-0.1l0.2 0.1c0.1 0 0.1 0.1 0.2 0.1 0 0 0.2 0.2 0.1 0.5-0.1 0.2-0.2 0.3-0.3 0.3v0.6c0 0.2 0 0.2-0.1 0.2zm0.2-1.4h-0.2l-0.1 0.2v0.1h0.2s0.1 0 0.1-0.1c0.1-0.1 0.1-0.2 0-0.2m0.3 1.5c-0.1 0-0.1-0.1-0.1-0.1l0.5-1.3c0-0.1 0.1-0.1 0.2-0.1s0.1 0.1 0.1 0.1l-0.5 1.3c-0.1 0.1-0.2 0.2-0.2 0.1zm0.5 0.2c-0.1 0-0.1-0.1-0.1-0.1l0.4-1.3c0-0.1 0.1-0.1 0.1-0.1l0.4 0.1c0.1 0 0.1 0.1 0.1 0.1 0 0.1-0.1 0.1-0.1 0.1l-0.2-0.1c-0.1 0-0.1 0-0.1 0.1l-0.1 0.2c0 0.1 0 0.1 0.1 0.1h0.1c0.1 0 0.1 0.1 0.1 0.1 0 0.1-0.1 0.1-0.1 0.1h-0.1c-0.1 0-0.1 0-0.1 0.1l-0.1 0.2c0 0.1 0 0.1 0.1 0.1l0.2 0.1c0.1 0 0.1 0.1 0.1 0.1 0 0.1-0.1 0.1-0.1 0.1zm1.3 0.4c-0.1 0-0.1-0.1-0.1-0.1l0.3-1.3c0-0.1 0.1-0.1 0.1-0.1 0.1 0 0.1 0.1 0.1 0.1l-0.3 1.1c0 0.1 0 0.1 0.1 0.1h0.2c0.1 0 0.1 0.1 0.1 0.1 0 0.1-0.1 0.1-0.1 0.1zm0.9 0.2c-0.1 0-0.1-0.1-0.1-0.1l0.2-1.4c0-0.1 0.1-0.1 0.1-0.1l0.4 0.1c0.1 0 0.1 0.1 0.1 0.1 0 0.1-0.1 0.1-0.1 0.1h-0.2c-0.1 0-0.1 0-0.1 0.1v0.2c0 0.1 0 0.1 0.1 0.1h0.1c0.1 0 0.1 0.1 0.1 0.1 0 0.1-0.1 0.1-0.1 0.1h-0.1c-0.1 0-0.1 0-0.1 0.1v0.2c0 0.1 0 0.1 0.1 0.1h0.2c0.1 0 0.1 0.1 0.1 0.1 0 0.1-0.1 0.1-0.1 0.1zm1.5 0.1c-0.1 0.1-0.2 0.1-0.3 0.1s-0.2-0.1-0.3-0.1c-0.1-0.1-0.1-0.2-0.1-0.4h0.1c0.1 0 0.1 0.1 0.1 0.1v0.1l0.1 0.1h0.1s0.1-0.1 0.1-0.2c0-0.2 0-0.2-0.1-0.3h-0.1c-0.1 0-0.1-0.1-0.2-0.1 0 0-0.1-0.1-0.1-0.4 0-0.1 0.1-0.3 0.2-0.3s0.2-0.1 0.3-0.1 0.2 0.1 0.3 0.1c0.1 0.1 0.1 0.2 0.1 0.4h-0.1c-0.1 0-0.1-0.1-0.1-0.1v-0.1l-0.1-0.1h-0.1s-0.1 0.1-0.1 0.2 0 0.2 0.1 0.2h0.1c0.1 0 0.1 0.1 0.2 0.1 0 0 0.1 0.1 0.1 0.4l-0.2 0.4m1.4 0.1c-0.1 0.1-0.2 0.1-0.3 0.1s-0.2 0-0.3-0.1-0.1-0.2-0.1-0.3h0.1c0.1 0 0.1 0.1 0.1 0.1v0.1h0.1 0.1v-0.2c0-0.2 0-0.2-0.1-0.3h-0.1c-0.1 0-0.2-0.1-0.2-0.1s-0.1-0.1-0.1-0.3c0-0.1 0-0.3 0.1-0.3 0.1-0.1 0.2-0.1 0.3-0.1s0.2 0 0.3 0.1 0.1 0.2 0.1 0.4h-0.1c-0.1 0-0.1-0.1-0.1-0.1v-0.1h-0.1-0.1v0.2c0 0.1 0 0.2 0.1 0.2h0.1c0.1 0 0.1 0.1 0.2 0.1 0 0 0.1 0.1 0.1 0.4 0 0 0 0.1-0.1 0.2m1.1-0.1c-0.1 0.1-0.2 0.1-0.3 0.1s-0.2 0-0.3-0.1-0.1-0.3-0.2-0.7c0-0.4 0-0.6 0.1-0.7s0.2-0.2 0.3-0.2 0.2 0 0.3 0.1 0.1 0.2 0.1 0.3h-0.1c-0.1 0-0.1 0-0.1-0.1l-0.1-0.1c-0.1 0-0.1 0-0.1 0.1v0.5c0 0.3 0 0.5 0.1 0.5 0 0 0.1 0.1 0.1 0 0.1 0 0.1 0 0.1-0.1v-0.2h0.3c-0.1 0.4-0.1 0.6-0.2 0.6m0.5 0.1c-0.1 0-0.1 0-0.1-0.1l-0.1-1.4c0-0.1 0-0.1 0.1-0.1s0.1 0 0.1 0.1l0.1 1.4c0.1 0 0 0.1-0.1 0.1zm0.6-0.1c-0.1 0-0.1 0-0.1-0.1l-0.2-1.4c0-0.1 0-0.1 0.1-0.1l0.4-0.1c0.1 0 0.1 0 0.1 0.1s0 0.1-0.1 0.1h-0.2c-0.1 0-0.1 0.1-0.1 0.1v0.2c0 0.1 0.1 0.1 0.1 0.1h0.1c0.1 0 0.1 0 0.1 0.1s0 0.1-0.1 0.1h-0.1c-0.1 0-0.1 0.1-0.1 0.1v0.2c0 0.1 0.1 0.1 0.1 0.1h0.2c0.1 0 0.1 0 0.1 0.1s0 0.1-0.1 0.1zm1.5-0.2c-0.1 0-0.1 0-0.2-0.1l-0.4-0.7c0-0.1-0.1 0 0 0l0.1 0.7c0 0.1 0 0.1-0.1 0.1s-0.1 0-0.1-0.1l-0.3-1.3c0-0.1 0-0.1 0.1-0.1s0.1 0 0.2 0.1l0.4 0.7c0 0.1 0.1 0 0 0l-0.1-0.7c0-0.1 0-0.1 0.1-0.1s0.1 0 0.1 0.1l0.3 1.3-0.1 0.1m1.1-0.4c0 0.1-0.1 0.1-0.2 0.2h-0.3c-0.1-0.1-0.2-0.3-0.3-0.6-0.1-0.4-0.1-0.5-0.1-0.7 0-0.1 0.1-0.2 0.3-0.2h0.3c0.1 0 0.2 0.2 0.2 0.3h-0.1c-0.1 0-0.1 0-0.2-0.1h-0.1c-0.1 0-0.1 0.1-0.1 0.1 0 0.1 0 0.2 0.1 0.5s0.1 0.4 0.2 0.5h0.1c0.1 0 0.1 0 0.1-0.1v-0.2l0.2-0.1c0 0.2 0 0.3-0.1 0.4m0.5-0.1c-0.1 0-0.1 0-0.1-0.1l-0.4-1.3c0-0.1 0-0.1 0.1-0.1l0.4-0.1c0.1 0 0.1 0 0.1 0.1s0 0.1-0.1 0.1l-0.2 0.1c-0.1 0-0.1 0.1-0.1 0.1l0.1 0.2c0 0.1 0.1 0.1 0.1 0.1h0.1c0.1 0 0.1 0 0.1 0.1s0 0.1-0.1 0.1h-0.1c-0.1 0-0.1 0.1-0.1 0.1l0.1 0.2c0 0.1 0.1 0.1 0.1 0.1l0.2-0.1c0.1 0 0.1 0 0.1 0.1s0 0.1-0.1 0.1zm1.4-0.6c0 0.1-0.1 0.2-0.3 0.2-0.1 0-0.2 0.1-0.3 0-0.1 0-0.2-0.1-0.2-0.3l0.1-0.1c0.1 0 0.1 0 0.2 0.1h0.1 0.1c0.1 0 0.1 0 0.1-0.1v-0.2c-0.1-0.2-0.1-0.2-0.2-0.2h-0.1-0.2s-0.2 0-0.2-0.3c0-0.1-0.1-0.3 0-0.4 0-0.1 0.1-0.1 0.2-0.2h0.3c0.1 0 0.2 0.1 0.2 0.3l-0.1 0.1c-0.1 0-0.1 0-0.2-0.1h-0.1s-0.1 0-0.1 0.1v0.2c0 0.1 0.1 0.2 0.2 0.2h0.1 0.2s0.2 0 0.3 0.3c0 0.2 0 0.3-0.1 0.4m0.9-0.3c-0.1 0-0.1 0-0.2-0.1l-0.6-1.2c0-0.1 0-0.1 0.1-0.2l0.4-0.2c0.1 0 0.1 0 0.2 0.1 0 0.1 0 0.1-0.1 0.2l-0.2 0.1c-0.1 0-0.1 0.1-0.1 0.2l0.1 0.2c0 0.1 0.1 0.1 0.2 0l0.1-0.1h0.2c0 0.1 0 0.1-0.1 0.2l-0.1 0.1c-0.1 0-0.1 0.1-0.1 0.2l0.1 0.2c0 0.1 0.1 0.1 0.2 0.1l0.2-0.1c0.1 0 0.1 0 0.2 0.1 0 0.1 0 0.1-0.1 0.2zm0.6-1.8c-0.1 0-0.1 0.1 0 0.2l0.6 1v0.2h-0.2l-0.6-1c0-0.1-0.1-0.1-0.2 0h-0.2v-0.2l0.5-0.3h0.2s-0.1 0-0.1 0.1zm1.4 0.7h-0.2l-0.7-1.2v-0.2h0.2l0.6 1c0 0.1 0.1 0.1 0.2 0l0.2-0.1h0.2v0.2zm1.2-0.8h-0.2l-0.1-0.1h-0.2l-0.1 0.1c-0.1 0-0.1 0.1-0.1 0.2v0.1 0.2h-0.1l-0.5-1.3c0-0.1 0-0.1 0.1-0.2h0.2l1 1c0.1-0.1 0.1 0 0 0zm-0.9-0.7 0.1 0.4c0 0.1 0.1 0.1 0.1 0 0.1 0 0.1-0.1 0-0.1zm1.8 0.1c-0.1 0.1-0.2 0.1-0.3 0.1-0.2 0-0.3-0.2-0.5-0.5s-0.3-0.5-0.3-0.6 0-0.2 0.2-0.3c0.1-0.1 0.2-0.1 0.3-0.1s0.2 0.1 0.3 0.2l-0.1 0.1h-0.2s-0.1-0.1-0.2 0l-0.1 0.1c0 0.1 0.1 0.2 0.3 0.5 0.2 0.2 0.3 0.4 0.4 0.4h0.1c0.1-0.1 0.1-0.2 0-0.3l-0.1-0.1c0-0.1-0.1-0.1-0.1 0h-0.1v-0.2l0.1-0.1h0.2l0.2 0.3c0.2 0.2 0.1 0.4-0.1 0.5m0.6-0.4h-0.2l-0.8-1.1v-0.2h0.2l0.7 0.9c0 0.1 0.1 0.1 0.2 0l0.2-0.1h0.2v0.2zm1-0.9c0 0.1 0 0.2-0.2 0.3-0.1 0.1-0.2 0.1-0.3 0.1-0.2 0-0.3-0.2-0.5-0.5s-0.3-0.4-0.3-0.6c0-0.1 0-0.2 0.2-0.3 0.1-0.1 0.2-0.1 0.3-0.1 0.2 0 0.3 0.2 0.5 0.5s0.3 0.4 0.3 0.6m-0.9-0.9h-0.1l-0.1 0.1c0 0.1 0.1 0.2 0.3 0.5 0.2 0.2 0.3 0.4 0.4 0.4h0.1l0.1-0.1c0-0.1-0.1-0.2-0.3-0.5-0.2-0.2-0.3-0.4-0.4-0.4m1.4 0.7h-0.2l-0.8-1.1v-0.2h0.2l0.8 1.1c0.1 0 0.1 0.1 0 0.2zm0.9-0.7h-0.2l-0.4-0.3h-0.2v0.1l0.3 0.3v0.2h-0.2l-0.8-1.1v-0.2l0.1-0.1s0.1-0.1 0.2-0.1c0 0 0.3-0.1 0.5 0.2 0.1 0.2 0.2 0.3 0.1 0.5l0.5 0.4c0.2-0.1 0.2 0 0.1 0.1zm-1.1-0.9c-0.1 0.1-0.1 0.1 0 0.2l0.2 0.2s0.1 0.1 0.1 0c0 0 0.1-0.1 0.1-0.2 0 0 0-0.1-0.1-0.2s-0.2-0.1-0.3 0m1.5 0.6h-0.2l-0.8-1.1v-0.2l0.4-0.3h0.2v0.2l-0.2 0.1s-0.1 0.1 0 0.2l0.1 0.2s0.1 0.1 0.2 0l0.1-0.1h0.2v0.2l-0.1 0.1c-0.1 0-0.1 0.1 0 0.2l0.1 0.2c0 0.1 0.1 0.1 0.2 0l0.2-0.1h0.2v0.2zm3.8-18.2c-0.2 0.1-4.3 2.6-5.2 3.4s-3.2 3.2-3.6 3.7c-0.1 0.1-0.1 0.2-0.2 0.2-0.3-0.4 0.7-1.3 0.7-1.4-0.1 0-0.5 0.5-0.6 0.6s-0.1 0.2-0.2 0.2c-0.2-0.2 0-0.4 0.1-0.6 0.1-0.1 0.5-0.7 0.6-0.9-0.3 0.2-0.5 0.5-0.7 0.7l-0.1 0.2c-0.1 0-0.1-0.3 0-0.4 0-0.1 0.9-1 0.9-1.1-0.2 0.2-0.5 0.4-0.8 0.7 0 0.1-0.2 0.2-0.2 0.2-0.1 0-0.1-0.2 0-0.3 2.9-2.9 9.2-5.5 9.4-5.5 0.1 0.1 0.1 0.2-0.1 0.3m-19.4 3.1c-0.2 0.1-2.1 0.3-2.6 0.4-0.1-0.1-0.1-0.4-0.3-0.4h-0.3c-0.5 0-1 0.1-1.5 0.2h-0.3s-0.1-0.1-0.1-0.2-0.5-0.8-0.8-1.2c-0.1-0.2-0.3-0.4-0.3-0.5v-0.4c0-0.1-0.1-0.2-0.2-0.3-0.1 0-0.2 0-0.3-0.1 0-0.1-0.1-0.2-0.1-0.3-0.1-0.3-0.2-0.6-0.4-0.8-0.1-0.1-0.5-0.9-0.7-0.9h-0.3c-0.2-0.1-0.2-0.4-0.4-0.4-0.1 0-0.6 0.4-0.7 0.5-0.6 0.4-1.8 1.3-1.9 1.4-0.1 0.2 0.1 0.3 0.1 0.3l0.3 0.3v0.3c0 0.1 0.7 1.1 1.2 1.5 0.1 0.1 0.3 0.1 0.3 0.2s-0.1 0.2-0.1 0.3c0 0.2 0.4 0.3 0.5 0.4 0.2 0.2 0.3 0.4 0.5 0.7 0.2 0.2 0.2 0.3 0.4 0.6 0 0-0.3 0.7-0.9 0.2-3.5-3-10.3-5.8-11-6.1-0.2-0.1-0.4-0.2-0.4-0.1 0 0 0.7 1.1 1 1.8 0.1 0.3 1 1.8 1.1 2-0.3 0-0.6-0.4-0.7-0.3-0.1 0 0 0.3 0.1 0.6s0.6 2.1 1.5 3.5c0.1 0.2 0.2 0.3 0.1 0.3-0.1 0.1-0.7-0.3-0.8-0.3 0 0-0.1 0 0 0.2s0.5 1.1 1.9 3.2c-0.1 0.1-0.2 0-0.3 0.1s0.1 0.3 0.2 0.5 0.8 1.1 0.9 1.2 1 1.1 1.4 1.4c0.5 0.3 1.5 0.9 1.8 1s1.3 0.4 1.6 0.5c0.3 0 0.5 0.1 0.6 0.1s0.3 0.2 0.5 0.3c1.5 0.8 2.5 0.8 3.5 0.7 0.5-0.1 0.8-0.1 1 0s0.9 0.7 1 0.8c0 0-0.4 0.7-0.5 1-0.3 0.5-1.5 2.5-1.6 2.7-0.1 0.1-0.3 0.6-0.5 0.5-0.1 0-1.9-1.1-2.3-1.4s-3.2-2.3-3.7-2.7c-0.3-0.3-1.9-1.2-3.4 0.8-1.1 1.8-1.3 3.6 1 5.4 0.3 0.2 0.9 1.2 0.7 2.1 0 0.1-0.1 0.2 0 0.3s1.9-1.5 2.1-3.3c0.9 0.8 1.9 1.5 3 2.1-0.1 0.2-0.3 0.4-0.4 0.5s-0.3 0.4-0.4 0.4-0.4 0.1-0.5 0.2c-0.1 0.2 0.1 0.3 0 0.5 0 0.1-0.2 0.3-0.2 0.4-0.1 0.1-0.2 0.3-0.3 0.3-0.1 0.1-0.2 0.1-0.3 0.1s-0.1 0.1-0.2 0.1-0.2 0-0.2 0.1c-0.2 0.1-0.2 0.3-0.1 0.5 0 0.1 0.1 0.2 0.1 0.3 0.1 0.1 0.2 0.2 0.3 0.4s1 1.5 0.9 1.9c-0.1 0.1-0.2 0.1-0.4 0.2-0.2 0-0.3-0.1-0.5-0.2 0.1-0.2 0.4-0.7 0.3-0.9s-0.1-0.2-0.4-0.3c-0.2-0.2-2.7-2.5-2.8-2.8-0.2-0.3-0.8-1.1-1-1.4s-0.9-1.4-1-1.4-0.3 0.4-0.3 0.5-0.1 0.3-0.1 0.4c-0.3 1-0.8 3.3-0.4 6.5 0.5 3.6 2.4 6.4 3.1 7.2 0.1 0.1 0.2 0.2 0.3 0.2 0.4-0.1 1-0.7 1.2-0.9 0.1-0.1 0.2 0 0.2 0h0.1c1.1 1.1 2.6 2.2 4.5 3 0.6 0.3 1.2 0.5 1.7 0.7 3.3 1.3 5.4 2 6.7 5.9l0.1 0.2c0.1 0 0.1-0.2 0.1-0.2 1.2-4.1 3.4-4.8 6.7-6.1 0.5-0.2 1.1-0.4 1.7-0.7 2-0.8 3.5-2 4.6-3 0.2 0.2 0.8 0.8 1.2 0.9 0.1 0 0.1 0 0.2-0.1 0.7-0.8 2.7-3.4 3.2-7.3 0.5-3.2-0.1-5.6-0.4-6.5-0.1-0.2-0.2-0.8-0.4-0.8-0.1 0-0.3 0.1-0.4 0.3-0.1 0.1-0.2 0.3-0.3 0.4-1.6 2.6-4.6 4.9-4.8 5.2-0.1 0.2 0.2 0.5 0.3 0.8-0.1 0.1-0.3 0.2-0.5 0.2s-0.5-0.3-0.5-0.4c0-0.2 0.2-0.4 0.4-0.5 0.2-0.2 0.4-0.5 0.5-0.8 0.1-0.2 0.3-0.6 0.3-0.7s0.3-0.5 0.2-0.5c0-0.1-0.1-0.3-0.2-0.3s-0.6-0.2-0.7-0.2c-0.2-0.1-0.6-0.6-0.6-0.8s0.1-0.4 0-0.5-0.3-0.1-0.5-0.2c-0.1-0.1-0.6-0.7-0.7-0.9 1.9-1.1 2.8-2 3.1-2.2 0.1 1.7 2 3.4 2.1 3.3 0-0.1 0-0.2-0.1-0.4 0-0.2 0-1.3 0.7-1.9 2.2-1.8 2.1-3.6 1-5.4-1.2-1.6-2.4-1.3-3-1s-2.4 1.8-2.9 2.2c-0.7 0.5-2.7 1.8-3.2 2-0.1 0-0.3 0-0.4-0.1-0.3-0.3-1.2-1.6-1.6-2.5-0.3-0.6-0.8-1.4-0.6-1.7 0.1-0.1 0.9-0.7 1.2-0.7 0.2 0 0.7 0.1 1.2 0.2s2.3-0.4 2.8-0.8 0.4-0.3 0.4-0.3c0.1 0 0.5-0.1 0.7-0.1 2.9-0.4 5.1-3 5.5-3.6s0.5-0.8 0.4-0.9c-0.1-0.2-0.2 0-0.3-0.1 0.3-0.5 1-1.3 1.1-1.6s0.6-0.8 0.7-1.3c0.1-0.3 0.2-0.4 0.1-0.6-0.1-0.1-0.7 0.4-0.8 0.2-0.1-0.1 0.3-0.5 1.2-2.2 0.7-1.4 0.7-2 0.6-2.2-0.1-0.1-0.6 0.2-0.7 0.3 0.3-0.6 0.7-1.3 1.1-1.9 0.4-0.8 1.1-1.8 1-1.8 0 0-0.1 0-0.4 0.1-0.6 0.3-7.4 3.1-11 6.1-0.1 0.1-0.5 0.2-0.8 0 0.2-0.3 0.4-0.5 0.4-0.6 0.1-0.1 0.3-0.5 0.5-0.7 0.2-0.1 0.5-0.2 0.5-0.4 0-0.1-0.1-0.2-0.1-0.3s0.2-0.1 0.3-0.2l0.5-0.5c0.1-0.1 0.6-0.8 0.7-1v-0.3c0-0.1 0.2-0.2 0.3-0.3 0 0 0.1-0.2 0.1-0.3s-0.2-0.2-0.3-0.3c-0.6-0.5-1.8-1.3-1.9-1.4s-0.2-0.2-0.4-0.2-0.2 0.3-0.4 0.4h-0.3c-0.1 0.1-0.4 0.6-0.5 0.7-0.1 0.2-0.5 0.9-0.5 1 0 0.2-0.1 0.3-0.1 0.3 0 0.1-0.2 0-0.3 0.1-0.1 0-0.2 0.2-0.2 0.3v0.4c-0.1 0.2-0.3 0.5-0.4 0.6-0.1 0.2-0.7 1-0.7 1.1-0.1 0.1-0.2 0.3-0.2 0.3-0.3-0.1-0.7-0.2-0.9-0.2-0.3 0-1.1-0.1-1.1-0.1-0.3-0.1-0.4 0.2-0.5 0.4-0.7-0.1-1.3-0.2-1.9-0.2-0.1 0-0.1-0.2-0.1-0.4v-2.3c1.7 2.4 3.4 2.3 3.9 2.1 0.4-0.4 1.1-1.6 1.4-2.8 0.2-0.8 0.4-1.7 0.3-2.4-0.1-0.9-0.4-4.4-4-5.8s-6.6 0.2-7.2 0.6c-0.2 0.1-0.4 0.2-0.4 0.3s0.2 0.3 0.2 0.3h0.4c0.2 0 0.6 0.4 0.8 0.8s0.4 1 0.3 1.3c0 0.2-0.6 0.5-1.2 1.6-0.4-0.4-0.6 0.6-0.8 0.8-0.1 0.2-0.4 1.5-0.3 1.7s0.1 0.2 0.2 0.3c-0.2 0.6-0.6 1.2-0.7 1.4s-0.3 0.6-0.4 1.2c0.5 0.2 2.3 0.5 5.5-0.7 0.1 0.3 0.1 1.6 0.1 1.7m1.3-2.5c0-0.1-0.1-0.1-0.1-0.1-0.1 0-0.1 0.1-0.1 0.1v6c0 0.1 0 0.1 0.1 0.1s0.1-0.1 0.1-0.1zm-0.4 0.2c0-0.1-0.1-0.1-0.2-0.1-0.1 0.1-0.5 0.3-0.5 0.4v5.5c0 0.1 0.1 0.1 0.1 0.1h0.4c0.1 0 0.1-0.1 0.1-0.2v-5.7zm-0.4 37.1c0-0.1-0.2-10.2-0.2-10.2 0-0.1 0-1-0.1-1.1-0.1-0.2-0.3-0.2-0.4-0.2-1.1 0-1.8-0.2-2.3-0.3-0.2 0-0.1 0.3 0 0.3 0.3 0 0.8 0.1 1.1 0.2 0 0.1 0 0.1-0.1 0.2-0.2 0-1.3-0.3-1.1 0.1 0.1 0.2 0.8 0.2 1.1 0.3v0.1c-0.3 0-0.7-0.1-1-0.1-0.1 0.1-0.1 0.2-0.1 0.3 0 0 1 0.1 1 0.3-0.3 0.1-0.8-0.1-1 0v0.3c0.1 0.1 1 0.1 0.9 0.2-0.2 0.1-0.8 0-0.9 0v0.3c0.1 0.1 0.9 0.1 0.9 0.2-0.1 0-0.7 0.1-0.9 0v0.4c0.1 0.1 0.8 0 0.8 0.2-0.1 0.1-0.7 0-0.9 0 0 0.1 0 0.2-0.1 0.4 0.1 0 0.8 0 0.8 0.2 0 0.1-0.7 0-0.9 0v0.3c0.1 0.1 0.9 0 0.9 0.1s-0.9 0.1-0.9 0v0.4c0.2 0 0.9 0.1 0.9 0.2-0.2 0.1-0.7 0-0.9 0-0.1 0.1-0.1 0.2-0.1 0.3 0.2 0 0.8 0.1 1 0.2 0 0.1-0.1 0.1-0.2 0.1s-0.7-0.1-0.9-0.1c0 0.1-0.1 0.2-0.1 0.3 0.1 0.1 1.1 0.2 1.1 0.3-0.3 0-0.8-0.1-1.2-0.1 0 0.1-0.1 0.2-0.2 0.3 0.3 0 0.8 0.2 1.1 0.3v0.1c-0.4 0-0.9-0.1-1.2-0.2 0 0.1-0.2 0.2-0.2 0.3s1.3 0.2 1.3 0.3-1.3-0.2-1.5-0.1l-0.3 0.3c0.2 0.1 1.5 0.3 1.6 0.3v0.2c-0.1 0-1.4-0.2-1.8-0.3l-0.3 0.3c0.1 0.1 2 0.3 2.2 0.4v0.1c-0.8-0.1-1.6-0.2-2.3-0.4-0.2 0.1-0.6 0.1-0.8 0.1 0.8 0.2 1.6 0.4 2.5 0.6 0 0 0 0.1-0.1 0.1-0.2-0.1-2.3-0.5-2.5-0.5-0.1 0-0.1-0.1-0.2-0.1-0.2-0.1-1.8 0.1-4.2-1.7-2.1-1.6-4.1-4.2-4.5-4.8-0.1-0.1-0.1-0.3-0.3-0.3 0 0.3 0.1 0.4 0.2 0.7s2.2 3.9 3.2 5.1c0.8 0.9 2.1 2.2 3.5 3 1.2 0.7 3.4 1.6 4.8 1.8 1 0.2 3.5 0.3 3.7 0.3 0.1 0 0.1-0.2 0.1-0.3m-13-16.6c-0.9-0.9-2.3-2.1-2.5-2-0.1 0.1 0.3 0.3 0.4 0.4s1.7 1.5 1.8 1.7 0.3 0.4 0.4 0.5c0 0.1 0.2-0.2-0.1-0.6m-3.3-0.3c-0.1 0.1 0.3 0.4 0.3 0.4s1.6 1.4 1.7 2.5c0 0.1 0 0.3 0.1 0.2 0.1 0 0.2 0 0.1-0.3 0-0.4-0.3-0.9-0.5-1.2-0.1-0.1-1.6-1.7-1.7-1.6m-0.3-0.7c-0.1 0.1 0.3 0.3 0.4 0.4 0 0 2.2 1.7 2.4 2.7 0 0.1 0 0.3 0.1 0.2 0.1 0 0.2 0 0.1-0.3-0.1-0.4-0.4-0.9-0.7-1.2-0.4-0.3-2.2-2-2.3-1.8m0-0.7c-0.2 0.1 0.3 0.5 0.4 0.5 0.2 0.1 2.5 2.1 2.7 2.7 0 0.1 0.1 0.2 0.1 0.2 0.1 0 0.2 0 0.1-0.3-0.1-0.4-0.3-0.6-0.9-1.2-0.6-0.5-2.2-2-2.4-1.9m0.3-0.4c-0.2 0.1 0.3 0.5 0.4 0.5 0.2 0.1 2.3 1.9 2.7 2.6 0.1 0.1 0 0.2 0.1 0.2s0.1-0.1 0.1-0.2c0-0.2-0.4-0.5-1-1.1-0.5-0.7-2.1-2.1-2.3-2m29.8 2.4c0.1-0.1 0.2-0.3 0.4-0.5 0.1-0.1 1.7-1.6 1.8-1.7s0.5-0.3 0.4-0.4-1.6 1.1-2.5 2c-0.5 0.5-0.3 0.8-0.1 0.6m1.5 0.9c-0.3 0.3-0.5 0.9-0.5 1.2s0.1 0.2 0.1 0.3c0.1 0 0.1-0.1 0.1-0.2 0.1-1.1 1.7-2.5 1.7-2.5 0.1-0.1 0.4-0.3 0.3-0.4-0.1-0.2-1.6 1.4-1.7 1.6m-0.2-0.5c-0.3 0.4-0.7 0.8-0.7 1.2-0.1 0.3 0 0.3 0.1 0.3s0.1-0.1 0.1-0.2c0.2-1 2.4-2.7 2.4-2.7 0.1-0.1 0.4-0.3 0.4-0.4-0.2-0.2-2 1.4-2.3 1.8m-0.2-0.6c-0.6 0.6-0.8 0.9-0.9 1.2s0 0.3 0.1 0.3 0.1-0.1 0.1-0.2c0.2-0.7 2.5-2.6 2.7-2.7 0.1-0.1 0.6-0.5 0.4-0.5-0.2-0.2-1.8 1.3-2.4 1.9m-0.2-0.4c-0.6 0.6-0.9 0.9-1 1.1 0 0.2 0 0.2 0.1 0.3 0.1 0 0.1-0.1 0.1-0.2 0.4-0.7 2.6-2.5 2.7-2.6s0.6-0.5 0.4-0.5c-0.2-0.2-1.7 1.3-2.3 1.9m-14.1 5.6v-0.2m-10.8-0.8c1.2 0.9 3.7 2.6 4.9 3.5 0 0.1-0.1 0.2-0.1 0.2-0.1 0-1.9-1.3-1.9-1.3l-0.1 0.1s1.4 0.9 1.9 1.3l-0.2 0.2c-1.2-0.9-3.7-2.7-4.9-3.6 0 0 0.3-0.2 0.4-0.4m0.1-0.6c0.3-0.1 4.8 3.3 5.2 3.6 0.1 0.1 0.2 0.2 0.2 0.4-0.1 0-0.3-0.1-0.4-0.2s-4.7-3.5-4.9-3.6c-0.1-0.1-0.2-0.1-0.1-0.2m-1.1 1.4c1 0.6 4.8 3.4 5.1 3.7 0.1 0.1 0.3 0.2 0.2 0.3-0.1 0-0.1 0-0.2-0.1-0.3-0.2-3.8-2.8-5.1-3.9zm-0.1 0.6c-0.1-0.1-0.5-0.3-0.2-0.4 1.8 1.3 3.7 2.7 5.5 4l0.1 0.1c-0.1 0.1-0.3-0.1-0.4-0.1-1.3-0.9-4.6-3.3-5-3.6m1.2-0.6c-0.1-0.1 0-0.2 0-0.2 0.1-0.1 0.8 0.4 0.9 0.7-0.3 0-0.7-0.4-0.9-0.5m10.4-18.3c0-0.2 0.1-0.3 0.1-0.3-1.5-0.1-2.7-1.2-2.7-2.5 0-0.6 0.2-1.1 0.6-1.6-0.3-0.1-0.9 0-1 0.1-0.2 0.1-0.2 0.2-0.2 0.2-0.1 0.5-0.1 1.3 0 2.4s0.6 2.4 0.9 3.1v0.1s-1.4 1.1-1.5 1.1c-0.2 0-0.9-0.7-1-0.8h-0.1-0.7c-0.1 0-0.3 0-0.4 0.1 0.4 1.3 1 2.7 1.7 3.8 0.1 0.2 0.2 0.4 0.3 0.5s0.4 0.3 1.3 0.2h2.2v-0.3h0.9v-5.8c-0.2 0-0.4-0.1-0.4-0.3m0.7 0s0.1 0.1 0.7 0.1l-0.1 0.1h-0.7s-0.2 0-0.2 0.2 0.2 0.2 0.2 0.2h0.7l-0.1 0.2h-0.7s-0.2 0-0.2 0.2 0 0.3 0.2 0.3h0.8l-0.1 0.1h-0.7c-0.1 0-0.2 0-0.2 0.2 0 0.1 0.1 0.2 0.1 0.2h0.8l-0.1 0.1h-0.7c-0.1 0-0.2 0.1-0.2 0.2s0.1 0.3 0.2 0.3h0.7l-0.1 0.1h-0.7c-0.1 0-0.2 0.1-0.2 0.2s-0.1 0.2 0.2 0.2h0.7l-0.1 0.1h-0.7c-0.1 0-0.2 0-0.2 0.2s0.1 0.2 0.2 0.2h0.6l-0.1 0.1h-0.6c-0.1 0-0.2 0-0.2 0.2s0.1 0.2 0.2 0.2h0.6l0.1 0.2h-0.6c-0.1 0-0.2 0-0.2 0.2s0.1 0.2 0.2 0.2h0.6l0.1 0.2h-0.6c-0.1 0-0.2 0-0.2 0.2s0.1 0.2 0.2 0.2h0.6l0.1 0.1h-0.6c-0.2 0-0.3 0.1-0.3 0.2s0.1 0.2 0.2 0.2h0.7l0.1 0.2h-1v0.3h0.8v0.2c0.9 0 1.9-0.1 2.8-0.1 0.2 0 0.7 0.1 0.6-0.2 0-0.1-0.3-0.1-0.4-0.1h-1.3v-0.2h1.6c0.2 0 0.4 0 0.4-0.2-0.4-0.1-0.8-0.1-1.2-0.1v-0.1h0.9c0.3 0 0.7 0 0.6-0.3-0.3 0-0.8 0-1.1-0.1v-0.2h0.9c0.2 0 0.6 0.1 0.5-0.2-0.3-0.1-0.8-0.1-1.1-0.2 0-0.1 0.1-0.1 0.1-0.2 0.2 0 1.4 0 1.4-0.2-0.6-0.2-1.4 0-2-0.2v-0.1h2.1c0.1 0 0.2-0.1 0.1-0.2 0-0.1-0.4-0.1-0.5-0.1-0.4-0.1-0.9 0-1.3-0.1v-0.1h1.6c0.1 0 0.4 0 0.4-0.2 0-0.1-0.6-0.2-0.7-0.2-0.4-0.1-0.7-0.1-1.2-0.1-0.2 0-1.5-1.1-1.6-1.2s0.3-0.8 0.3-0.8c0.1-0.2 0.2-0.5 0.2-0.6v-0.2c0.1-0.4 0.3-1.1 0.3-1.6 0.1-1.1 0-1.9 0-2.3-0.1-0.4-0.3-0.4-0.7-0.5-0.5-0.1-0.2 0.2-0.2 0.2 0.3 0.4 0.4 0.9 0.4 1.4 0 1.3-1.1 2.4-2.5 2.5 0 0-0.1 0 0 0.1 0.4 0.3 0.4 0.4 0.4 0.4m10.5 0.6s-0.4 0.6 0.4 0.2c0.8-0.5 1.3-0.6 1.3-0.6-0.7 0.6-2.2 1.2-2.2 1.2l-0.7 1.1c0.3 0 2.8-1.2 3.2-1.5 0.4-0.4 1.5-2.4 1.6-2.8 0.2-0.4 0-0.5-0.2-0.3-0.1 0.1-0.8 0.6-1.1 0.9s-1.8 1.2-1.8 1.2-0.4 0.6-0.5 0.6m-25.7-4c-0.2-0.4-0.8-2-0.7-2.1s0.3 0 0.4 0.1c0.2 0.2 0.2 0.5 0.3 0.7 0 0 0-0.2 0.1-0.2 0.4 0 0.4 0.8 0.9 1 0-0.1-0.1-0.2 0-0.3 0.2 0 0.3 0.1 0.4 0.2 0.2 0.2 0.8 1.2 0.8 1.4-0.3 0.1-1.5-1.1-1.6-1.1 0.1 0.2 1.6 1.6 1.8 1.7 0.1 0.2 0.5 1.1 0.5 1.2 0 0 0.1 0.1 0 0.1-0.2 0.1-2.7-2.3-2.9-2.7m-5.2-5c0.1-0.1 0.9 0.5 1.1 0.9 0.1 0.2 0.2 0.4 0.2 0.3 0 0-0.1-0.3 0-0.3s0.4 0.1 0.9 1c0-0.1-0.2-0.4-0.1-0.5 0.3-0.1 0.5 0.6 0.7 0.8s0-0.3 0.1-0.3 0.3 0 0.3 0.1 0.4 1 0.6 1c0.1 0-0.2-0.5-0.1-0.6s0.3 0.2 0.4 0.3 0.6 1.4 0.5 1.5-0.7-0.4-0.9-0.5c-0.2-0.2-1.4-1.2-1.4-1.2s0.3 0.5 0.7 0.9c0.9 0.9 1.9 1.6 1.9 1.6s0.4 0.6 0.2 0.6c-1.1 0-2.9-2.2-3.1-2.5-0.3-0.2-2.2-3-2-3.1m8.2 8.3s-1.4-0.9-1.8-1.2c-0.3-0.3-1-0.8-1.1-0.9s-0.3-0.1-0.2 0.3c0.2 0.4 1.3 2.5 1.6 2.8 0.4 0.4 2.8 1.5 3.2 1.5l-0.7-1.1s-1.5-0.5-2.2-1.2c0 0 0.6 0.1 1.3 0.6 0.8 0.5 0.4-0.1 0.4-0.2 0.1 0.1-0.3-0.5-0.5-0.6m5.6-2.4c0.1 0-0.3 0-0.3 0.2s0 2.2-0.2 2.7-0.4 1.2-0.3 1.3 0.2 0.1 0.3-0.2 0.8-2.3 0.7-3.6c0-0.3-0.2-0.4-0.2-0.4m11.9 0.5c-0.1 1.3 0.5 3.3 0.7 3.6 0.1 0.3 0.2 0.2 0.3 0.2 0.1-0.1-0.1-0.7-0.3-1.3-0.2-0.5-0.2-2.5-0.2-2.7s-0.3-0.2-0.3-0.2-0.2 0-0.2 0.4"/>
<path class="st0" d="m287.8 114.1c-13.1-9-20.1-13.8-26.7-18.7-3.2 5.2-5 11.4-5 18 0 12 6 22.5 15.2 28.8 3.8-7.6 9-16 16.5-28.1"/>
<path class="st0" d="m322.1 121c-5.4 5.7-14 6.6-20.2 2.7-1.2-0.8-9.7-6.6-9.7-6.6-9.4 13.3-14.2 19.9-19.4 26 5.3 3.2 11.5 5.1 18.1 5.1 18.7 0 33.9-14.7 34.8-33.1-0.8 2.2-2 4.2-3.6 5.9"/>
<path class="st0" d="m315.6 101.4c-1.2-0.8-8.6-5.7-8.6-5.7-6.1 9-7.1 10.3-11.7 17 0 0 8.1 5.3 9.3 6 4.2 2.6 9.8 1.8 13.1-1.8 1.3-1.4 2.2-3.1 2.5-5 0.6-3.4-0.5-7.8-4.6-10.5"/>
<path class="st0" d="m290.6 109.7c4.4-7 8.4-13.3 14.7-22.8 0 0 13.2 8.7 14.3 9.5 1.4 1 2.4 2 3.2 2.9-5.4-12.2-17.6-20.8-31.9-20.8-11.3 0-21.4 5.4-27.8 13.8 7 4.3 15.4 9.6 27.5 17.4"/>
<path class="st0" d="m258 88.3c0-2.4-2-4.4-4.4-4.4s-4.4 1.9-4.4 4.4c0 2.4 2 4.4 4.4 4.4s4.4-2 4.4-4.4"/>
<path class="st0" d="m261.1 75.5 2.1-1.5c1.2-0.9 2.5-0.7 3.2 0.3 0.8 1.2 0.3 2.5-0.8 3.3l-1 0.7 1.2 1.7-0.9 0.7zm3.9 1.3c0.7-0.5 0.9-1.2 0.5-1.7-0.4-0.6-1.1-0.6-1.8-0.1l-1.1 0.8 1.3 1.9z"/>
<path class="st0" d="m269.6 73.7c-0.7-1.7-0.1-3.6 1.7-4.4s3.7 0 4.4 1.7 0.1 3.6-1.7 4.4-3.6 0-4.4-1.7m5.1-2.3c-0.5-1.2-1.8-1.7-2.9-1.2-1.2 0.5-1.6 1.8-1.1 3 0.5 1.1 1.8 1.7 2.9 1.2 1.2-0.5 1.6-1.8 1.1-3"/>
<polygon class="st0" transform="translate(-67.3,-60.6)" points="348.1 132.5 351.4 131.8 351.6 132.8 347.2 133.7 345.8 127.4 346.9 127.2"/>
<polygon class="st0" transform="translate(-67.3,-60.6)" points="353.5 126.1 355.5 128.8 357.1 125.9 358.4 125.8 356.1 129.8 356.2 132.4 355.1 132.4 355 129.9 352.2 126.1"/>
<polygon class="st0" transform="translate(-67.3,-60.6)" points="361.1 125.9 366.3 126.5 366.2 127.5 364.2 127.3 363.6 132.7 362.4 132.5 363 127.2 361 126.9"/>
<polygon class="st0" transform="translate(-67.3,-60.6)" points="374.4 129.7 371 128.6 370.5 130.2 373.6 131.2 373.3 132.2 370.2 131.2 369.7 132.9 373.2 134 372.9 134.9 368.3 133.5 370.2 127.3 374.7 128.7"/>
<path class="st0" d="m309.7 72.5c0.9-1.6 2.8-2.3 4.5-1.4 1 0.6 1.5 1.3 1.7 2.1l-1 0.4c-0.2-0.7-0.6-1.2-1.2-1.6-1.1-0.6-2.4-0.1-3 1s-0.3 2.4 0.8 3c0.7 0.4 1.3 0.3 2 0.1l0.3 1c-0.9 0.3-1.8 0.3-2.8-0.2-1.7-0.8-2.2-2.7-1.3-4.4"/>
<polygon class="st0" transform="translate(-67.3,-60.6)" points="386.2 138.2 388.5 140.1 390.2 138.1 391.1 138.8 387 143.7 386.1 143 387.9 140.9 385.5 139 383.7 141 382.9 140.3 387 135.4 387.9 136.1"/>
<polygon class="st0" transform="translate(-67.3,-60.6)" points="393.8 148.6 397.3 145.9 398 146.8 392.9 150.7 392.3 150 393.8 144.4 390.1 147.2 389.5 146.3 394.5 142.4 395.2 143.2"/>
<rect class="st0" transform="rotate(-28.523)" x="243.08" y="237.97" width="6.3998" height="1.1" stroke-width=".99997"/>
<path class="st0" d="m331.4 101.6c-0.5-0.4-1-0.9-1.2-1.7-0.6-1.9 0.3-3.7 2-4.3s3.6 0.2 4.3 2.1c0.6 1.9-0.3 3.7-2 4.3-0.7 0.2-1.4 0.2-2.1 0l-0.4 0.9-1-0.4zm0.5-1.1 0.5-1.3 1 0.4-0.6 1.4c0.4 0.1 0.8 0.1 1.2-0.1 1.2-0.4 1.9-1.6 1.5-2.8s-1.7-1.7-2.9-1.3-1.9 1.6-1.5 2.8c0.2 0.4 0.5 0.7 0.8 0.9"/>
<path class="st0" d="m334.7 105.5 3.7-0.4 0.1 1.1-3.6 0.4c-1.2 0.1-1.8 0.8-1.6 1.8 0.1 1 0.8 1.5 2 1.4l3.7-0.4 0.1 1.1-3.6 0.4c-1.9 0.2-3-0.7-3.2-2.4-0.3-1.6 0.5-2.8 2.4-3"/>
<polygon class="st0" transform="translate(-67.3,-60.6)" points="405 180.2 405.3 176.5 403.6 176.4 403.3 179.6 402.3 179.6 402.6 176.3 400.9 176.2 400.6 179.9 399.6 179.8 399.9 175 406.4 175.5 406 180.3"/>
<polygon class="st0" transform="translate(-67.3,-60.6)" points="333.6 207.7 334.5 208.3 330.8 213.6 329.8 212.9"/>
<polygon class="st0" transform="translate(-67.3,-60.6)" points="326 203.6 322.8 206.7 322.1 205.9 326.6 201.4 327.3 202.1 326.6 207.8 329.8 204.6 330.6 205.4 326 209.9 325.3 209.2"/>
<path class="st0" d="m256.7 139-1.1-0.1c0.1-0.8 0-1.5-0.4-2.2-0.4-0.6-0.9-0.8-1.3-0.5s-0.4 0.6 0 1.8c0.5 1.3 0.6 2.2-0.4 2.8-0.9 0.6-2.1 0.3-2.8-0.8-0.5-0.8-0.7-1.6-0.6-2.4h1.1c0 0.7 0.1 1.3 0.4 1.8 0.4 0.6 0.9 0.7 1.2 0.5 0.4-0.3 0.4-0.6 0-1.8-0.5-1.3-0.5-2.2 0.4-2.8 1-0.7 2.1-0.3 2.9 0.9 0.6 0.8 0.8 1.8 0.6 2.8"/>
<polygon class="st0" transform="translate(-67.3,-60.6)" points="315 195.4 313 190.6 313.9 190.2 314.7 192.1 319.7 190 320.1 191 315.2 193.2 316 195"/>
<rect class="st0" transform="rotate(-15.154)" x="202.98" y="184.94" width="6.3998" height="1.1" stroke-width=".99997"/>
<polygon class="st0" transform="translate(-67.3,-60.6)" points="310.8 182.5 310.1 177.3 311.2 177.2 311.4 179.2 316.8 178.6 316.9 179.7 311.5 180.4 311.8 182.4"/>
<path class="st0" d="m246.4 113.3-3.7-0.2 0.1-1.1 3.7 0.2c1.2 0.1 1.9-0.5 1.9-1.5 0.1-1-0.5-1.7-1.7-1.7l-3.7-0.2 0.1-1.1 3.6 0.2c1.9 0.1 2.8 1.3 2.7 3-0.1 1.5-1.1 2.5-3 2.4"/>
<polygon class="st0" transform="translate(-67.3,-60.6)" points="310.9 164.4 312.3 159.4 313.3 159.6 312.8 161.6 318 163 317.7 164.1 312.5 162.7 312 164.7"/>
<path class="st0" d="m276.5 152.4 2.5 0.7c2.6 0.7 3.5 2.4 3 4.3s-2.3 2.9-4.9 2.2l-2.4-0.7zm1.3 5.4c1 0.3 1.7 0.1 2-0.9 0.3-0.9-0.3-1.5-1.2-1.8l-0.4-0.1-0.8 2.7z"/>
<polygon class="st0" transform="translate(-67.3,-60.6)" points="359.1 217.4 355.5 217.3 355.5 217.9 358.8 218.1 358.7 219.7 355.4 219.6 355.4 220.3 359 220.5 358.9 222.3 353.1 222 353.4 215.3 359.1 215.6"/>
<path class="st0" d="m300.4 153.9 2.9-0.9c1.7-0.5 3.1-0.1 3.6 1.4 0.5 1.6-0.5 2.8-2.2 3.3l-0.7 0.2 0.5 1.8-2.2 0.7zm3.7 2.4c0.6-0.2 0.8-0.5 0.7-1s-0.6-0.6-1.1-0.4l-0.6 0.2 0.4 1.4z"/>
<path class="st0" d="m310.4 150 1.9-1.1 5.8 4.5-2.1 1.2-0.8-0.6-2.1 1.2 0.1 1-2.1 1.2zm3.7 2.9-1.3-1.1 0.3 1.7z"/>
<path class="st0" d="m317 145.8 2.4-2.3c0.9-0.8 1.6-1.1 2.3-1.1 0.6 0 1.1 0.2 1.5 0.8 0.7 0.7 0.8 1.6 0.4 2.4l2.7 0.6-1.9 1.8-2.2-0.5-0.3 0.3 1.3 1.4-1.7 1.5zm4.6 0.2c0.4-0.4 0.5-0.8 0.2-1.1s-0.7-0.2-1.1 0.1l-0.7 0.7 0.9 1z"/>
<rect class="st0" transform="rotate(-53.695)" x="79.903" y="343.12" width="2.3001" height="6.8002"/>
<path class="st0" d="m332 137.1-0.8-1.7c0.8-0.4 1.4-1.1 1.7-1.8 0.2-0.4 0.2-0.6 0-0.6-0.2-0.1-0.4 0.1-0.8 0.6-0.9 1.2-1.9 2.2-3.2 1.6-1.2-0.6-1.6-1.9-0.8-3.6 0.6-1.2 1.3-1.9 2.2-2.3l0.9 1.7c-0.7 0.4-1.2 1-1.5 1.5-0.1 0.3-0.1 0.5 0 0.6 0.2 0.1 0.3 0 0.8-0.6 1-1.4 2-2.2 3.2-1.6 1.3 0.6 1.5 2 0.8 3.7-0.6 1.1-1.5 2-2.5 2.5"/>
<rect class="st0" x="356.1" y="77" width="3.1" height="17.9"/>
<polygon class="st0" transform="translate(-67.3,-60.6)" points="447.9 150 447.9 137.6 451 137.6 451 155.5 448.4 155.5 438.5 142.8 438.5 155.5 435.4 155.5 435.4 137.6 438.3 137.6"/>
<path class="st0" d="m399.2 84.5c-3.4-0.8-4.2-1.5-4.2-2.8 0-1.2 1.1-2.1 2.9-2.1 1.6 0 3.2 0.6 4.8 1.8l1.7-2.4c-1.8-1.5-3.9-2.2-6.5-2.2-3.5 0-6.1 2.1-6.1 5.2 0 3.3 2.1 4.4 5.9 5.4 3.3 0.8 4 1.5 4 2.8 0 1.4-1.2 2.3-3.2 2.3-2.2 0-3.9-0.8-5.6-2.3l-1.9 2.2c2.1 1.9 4.7 2.9 7.5 2.9 3.8 0 6.4-2 6.4-5.4 0.1-3.1-1.9-4.5-5.7-5.4"/>
<polygon class="st0" transform="translate(-67.3,-60.6)" points="477.9 137.6 492.4 137.6 492.4 140.5 486.7 140.5 486.7 155.5 483.6 155.5 483.6 140.5 477.9 140.5"/>
<rect class="st0" x="432" y="77" width="3.1" height="17.9"/>
<polygon class="st0" transform="translate(-67.3,-60.6)" points="509.4 137.6 523.9 137.6 523.9 140.5 518.2 140.5 518.2 155.5 515 155.5 515 140.5 509.4 140.5"/>
<path class="st0" d="m462.9 87.3v-10.3h3.1v10.2c0 3.3 1.7 5.1 4.5 5.1s4.5-1.7 4.5-5v-10.3h3.1v10.1c0 5.3-3 8-7.7 8-4.6 0.1-7.5-2.6-7.5-7.8"/>
<polygon class="st0" transform="translate(-67.3,-60.6)" points="551.7 137.6 566.2 137.6 566.2 140.5 560.6 140.5 560.6 155.5 557.4 155.5 557.4 140.5 551.7 140.5"/>
<path class="st0" d="m363.2 104.5h-7v17.9h3.1v-5.7h3.6c3.9 0 7.1-2.1 7.1-6.1 0-3.7-2.7-6.1-6.8-6.1m-0.3 9.2h-3.6v-6.4h3.6c2.4 0 3.9 1.1 3.9 3.2 0 1.9-1.5 3.2-3.9 3.2"/>
<path class="st0" d="m385 104.1c-5.5 0-9.4 4.2-9.4 9.3 0 5 3.8 9.2 9.3 9.2s9.4-4.2 9.4-9.3c0-5-3.8-9.2-9.3-9.2m0 15.6c-3.5 0-6.1-2.9-6.1-6.4s2.5-6.3 6-6.3 6.1 2.9 6.1 6.4c0.1 3.5-2.4 6.3-6 6.3"/>
<polygon class="st0" transform="translate(-67.3,-60.6)" points="471.8 180.1 481.2 180.1 481.2 182.9 468.7 182.9 468.7 165.1 471.8 165.1"/>
<polygon class="st0" transform="translate(-67.3,-60.6)" points="486.3 165.1 491.3 173 496.4 165.1 500 165.1 492.9 175.8 492.9 182.9 489.7 182.9 489.7 175.9 482.6 165.1"/>
<polygon class="st0" transform="translate(-67.3,-60.6)" points="504.9 165.1 519.4 165.1 519.4 168 513.7 168 513.7 182.9 510.5 182.9 510.5 168 504.9 168"/>
<polygon class="st0" transform="translate(-67.3,-60.6)" points="539.5 167.9 529.4 167.9 529.4 172.5 538.4 172.5 538.4 175.3 529.4 175.3 529.4 180.1 539.6 180.1 539.6 182.9 526.3 182.9 526.3 165.1 539.5 165.1"/>
<path class="st0" d="m493.5 117.4c-1.5 1.4-2.9 2.3-5.1 2.3-3.4 0-5.9-2.9-5.9-6.4s2.5-6.3 5.9-6.3c2 0 3.6 0.9 5 2.2l2-2.3c-1.7-1.6-3.7-2.8-7-2.8-5.4 0-9.2 4.2-9.2 9.3s3.9 9.2 9.1 9.2c3.3 0 5.4-1.2 7.2-3.2z"/>
<polygon class="st0" transform="translate(-67.3,-60.6)" points="572.8 172.5 581.3 172.5 581.3 165.1 584.5 165.1 584.5 182.9 581.3 182.9 581.3 175.4 572.8 175.4 572.8 182.9 569.7 182.9 569.7 165.1 572.8 165.1"/>
<polygon class="st0" transform="translate(-67.3,-60.6)" points="605.9 177.4 605.9 165.1 609 165.1 609 182.9 606.4 182.9 596.5 170.2 596.5 182.9 593.5 182.9 593.5 165.1 596.4 165.1"/>
<rect class="st0" x="550.7" y="104.5" width="3.1" height="17.9"/>
<path class="st0" d="m577.8 118.9c1.2-1.6 1.8-3.5 1.8-5.5 0-5-3.8-9.2-9.3-9.2s-9.4 4.2-9.4 9.3 3.8 9.2 9.3 9.2c2.1 0 3.9-0.6 5.4-1.7l2.1 1.9 2-2.2zm-2.4-2.1-3.1-2.8-2 2.3 3.1 2.6c-0.8 0.5-1.9 0.9-3.1 0.9-3.6 0-6.1-2.9-6.1-6.4s2.5-6.3 6-6.3 6.1 2.9 6.1 6.4c0 1.2-0.3 2.3-0.9 3.3"/>
<path class="st0" d="m586.7 114.7v-10.3h3.1v10.2c0 3.3 1.7 5.1 4.5 5.1s4.5-1.7 4.5-5v-10.3h3.1v10.1c0 5.3-3 8-7.7 8-4.5 0.1-7.5-2.6-7.5-7.8"/>
<polygon class="st0" transform="translate(-67.3,-60.6)" points="690.3 167.9 680.2 167.9 680.2 172.5 689.2 172.5 689.2 175.3 680.2 175.3 680.2 180.1 690.4 180.1 690.4 182.9 677 182.9 677 165.1 690.3 165.1"/>
<path class="st0" d="m363 131.9h-6.9v17.9h6.8c6.4 0 10.2-3.9 10.2-9 0-5.2-3.7-8.9-10.1-8.9m0.1 13.5h-2v-9.1h2c3 0 4.9 1.7 4.9 4.5 0 2.9-1.9 4.6-4.9 4.6"/>
<polygon class="st0" transform="translate(-67.3,-60.6)" points="463 196.7 453.5 196.7 453.5 199.4 462.1 199.4 462.1 203.3 453.5 203.3 453.5 206.2 463.1 206.2 463.1 210.4 448.6 210.4 448.6 192.5 463 192.5"/>
<path class="st0" d="m424.6 131.9h-7.7v17.9h5v-5.1h2.4c4.4 0 7.7-2.2 7.7-6.5 0-4-2.9-6.3-7.4-6.3m-0.4 8.9h-2.3v-4.7h2.3c1.8 0 2.9 0.8 2.9 2.4 0 1.3-1.1 2.3-2.9 2.3"/>
<path class="st0" d="m443.8 131.8h4.8l7.6 18h-5.3l-1.3-3.2h-6.9l-1.3 3.2h-5.2zm4.4 10.9-2-5.1-2 5.1z"/>
<path class="st0" d="m475.1 143.5c2.2-0.9 3.7-2.8 3.7-5.5 0-4-2.8-6.1-7.4-6.1h-8.5v17.9h5v-5.4h2.2l3.6 5.4h5.7zm-4-3h-3.3v-4.3h3.2c1.7 0 2.7 0.7 2.7 2.1 0.1 1.3-0.9 2.2-2.6 2.2"/>
<rect class="st0" x="487.6" y="131.9" width="5" height="17.9"/>
<path class="st0" d="m509.1 138.6c-2.5-0.6-3.1-0.9-3.1-1.8 0-0.6 0.6-1.2 1.8-1.2 1.6 0 3.4 0.6 5 1.8l2.5-3.5c-1.9-1.6-4.3-2.4-7.4-2.4-4.3 0-6.9 2.4-6.9 5.7 0 3.7 2.9 4.8 6.7 5.6 2.4 0.6 3 1 3 1.7 0 0.8-0.7 1.2-2 1.2-2.1 0-4-0.7-5.8-2.1l-2.8 3.3c2.2 2 5.2 3 8.4 3 4.3 0 7.2-2.2 7.2-5.8 0-3.2-2.5-4.6-6.6-5.5"/>
</svg>
